<svg viewBox="0 0 330 200" xmlns="http://www.w3.org/2000/svg"><g><g><g><g><g><line x1="72.34375" y1="177" x2="67.34375" y2="177" style="visibility: inherit;" fill="rgb(0, 0, 0)" stroke="rgb(204, 204, 204)" stroke-width="1px"></line><line x1="72.34375" y1="159.3" x2="67.34375" y2="159.3" style="visibility: inherit;" fill="rgb(0, 0, 0)" stroke="rgb(204, 204, 204)" stroke-width="1px"></line><line x1="72.34375" y1="141.6" x2="67.34375" y2="141.6" style="visibility: inherit;" fill="rgb(0, 0, 0)" stroke="rgb(204, 204, 204)" stroke-width="1px"></line><line x1="72.34375" y1="123.89999999999999" x2="67.34375" y2="123.89999999999999" style="visibility: inherit;" fill="rgb(0, 0, 0)" stroke="rgb(204, 204, 204)" stroke-width="1px"></line><line x1="72.34375" y1="106.20000000000002" x2="67.34375" y2="106.20000000000002" style="visibility: inherit;" fill="rgb(0, 0, 0)" stroke="rgb(204, 204, 204)" stroke-width="1px"></line><line x1="72.34375" y1="88.5" x2="67.34375" y2="88.5" style="visibility: inherit;" fill="rgb(0, 0, 0)" stroke="rgb(204, 204, 204)" stroke-width="1px"></line><line x1="72.34375" y1="70.79999999999998" x2="67.34375" y2="70.79999999999998" style="visibility: inherit;" fill="rgb(0, 0, 0)" stroke="rgb(204, 204, 204)" stroke-width="1px"></line><line x1="72.34375" y1="53.10000000000001" x2="67.34375" y2="53.10000000000001" style="visibility: inherit;" fill="rgb(0, 0, 0)" stroke="rgb(204, 204, 204)" stroke-width="1px"></line><line x1="72.34375" y1="35.39999999999999" x2="67.34375" y2="35.39999999999999" style="visibility: inherit;" fill="rgb(0, 0, 0)" stroke="rgb(204, 204, 204)" stroke-width="1px"></line><line x1="72.34375" y1="17.699999999999996" x2="67.34375" y2="17.699999999999996" style="visibility: inherit;" fill="rgb(0, 0, 0)" stroke="rgb(204, 204, 204)" stroke-width="1px"></line><line x1="72.34375" y1="0" x2="67.34375" y2="0" style="visibility: inherit;" fill="rgb(0, 0, 0)" stroke="rgb(204, 204, 204)" stroke-width="1px"></line></g><g transform="translate(62.34375, 0)"><text x="0" y="177" dx="0em" dy="0.3em" style="text-anchor: end; visibility: hidden; font-family: Roboto, sans-serif; font-size: 15px; font-weight: 200;" fill="rgb(33, 33, 33)" stroke="none" stroke-width="1px">-5e-5</text><text x="0" y="159.3" dx="0em" dy="0.3em" style="text-anchor: end; visibility: inherit; font-family: Roboto, sans-serif; font-size: 15px; font-weight: 200;" fill="rgb(33, 33, 33)" stroke="none" stroke-width="1px">0</text><text x="0" y="141.6" dx="0em" dy="0.3em" style="text-anchor: end; visibility: hidden; font-family: Roboto, sans-serif; font-size: 15px; font-weight: 200;" fill="rgb(33, 33, 33)" stroke="none" stroke-width="1px">5e-5</text><text x="0" y="123.89999999999999" dx="0em" dy="0.3em" style="text-anchor: end; visibility: inherit; font-family: Roboto, sans-serif; font-size: 15px; font-weight: 200;" fill="rgb(33, 33, 33)" stroke="none" stroke-width="1px">1e-4</text><text x="0" y="106.20000000000002" dx="0em" dy="0.3em" style="text-anchor: end; visibility: hidden; font-family: Roboto, sans-serif; font-size: 15px; font-weight: 200;" fill="rgb(33, 33, 33)" stroke="none" stroke-width="1px">1.5e-4</text><text x="0" y="88.5" dx="0em" dy="0.3em" style="text-anchor: end; visibility: inherit; font-family: Roboto, sans-serif; font-size: 15px; font-weight: 200;" fill="rgb(33, 33, 33)" stroke="none" stroke-width="1px">2e-4</text><text x="0" y="70.79999999999998" dx="0em" dy="0.3em" style="text-anchor: end; visibility: hidden; font-family: Roboto, sans-serif; font-size: 15px; font-weight: 200;" fill="rgb(33, 33, 33)" stroke="none" stroke-width="1px">2.5e-4</text><text x="0" y="53.10000000000001" dx="0em" dy="0.3em" style="text-anchor: end; visibility: inherit; font-family: Roboto, sans-serif; font-size: 15px; font-weight: 200;" fill="rgb(33, 33, 33)" stroke="none" stroke-width="1px">3e-4</text><text x="0" y="35.39999999999999" dx="0em" dy="0.3em" style="text-anchor: end; visibility: hidden; font-family: Roboto, sans-serif; font-size: 15px; font-weight: 200;" fill="rgb(33, 33, 33)" stroke="none" stroke-width="1px">3.5e-4</text><text x="0" y="17.699999999999996" dx="0em" dy="0.3em" style="text-anchor: end; visibility: inherit; font-family: Roboto, sans-serif; font-size: 15px; font-weight: 200;" fill="rgb(33, 33, 33)" stroke="none" stroke-width="1px">4e-4</text><text x="0" y="0" dx="0em" dy="0.3em" style="text-anchor: end; visibility: hidden; font-family: Roboto, sans-serif; font-size: 15px; font-weight: 200;" fill="rgb(33, 33, 33)" stroke="none" stroke-width="1px">4.5e-4</text></g><line x1="72.34375" y1="0" x2="72.34375" y2="177" fill="rgb(0, 0, 0)" stroke="rgb(204, 204, 204)" stroke-width="1px"></line></g></g><g transform="translate(72, 0)" clip-path="url(#clip_0)"><clipPath id="clip_0"><rect width="257" height="176"></rect></clipPath><g><g><g><line x1="0" y1="0" x2="0" y2="177" fill="rgb(0, 0, 0)" stroke="rgb(66, 66, 66)" stroke-width="1px" opacity="0.25"></line><line x1="25.765625" y1="0" x2="25.765625" y2="177" fill="rgb(0, 0, 0)" stroke="rgb(66, 66, 66)" stroke-width="1px" opacity="0.25"></line><line x1="51.53125" y1="0" x2="51.53125" y2="177" fill="rgb(0, 0, 0)" stroke="rgb(66, 66, 66)" stroke-width="1px" opacity="0.25"></line><line x1="77.296875" y1="0" x2="77.296875" y2="177" fill="rgb(0, 0, 0)" stroke="rgb(66, 66, 66)" stroke-width="1px" opacity="0.25"></line><line x1="103.0625" y1="0" x2="103.0625" y2="177" fill="rgb(0, 0, 0)" stroke="rgb(66, 66, 66)" stroke-width="1px" opacity="0.25"></line><line x1="128.828125" y1="0" x2="128.828125" y2="177" fill="rgb(0, 0, 0)" stroke="rgb(66, 66, 66)" stroke-width="1px" opacity="0.25"></line><line x1="154.59375" y1="0" x2="154.59375" y2="177" fill="rgb(0, 0, 0)" stroke="rgb(66, 66, 66)" stroke-width="1px" opacity="0.25"></line><line x1="180.359375" y1="0" x2="180.359375" y2="177" fill="rgb(0, 0, 0)" stroke="rgb(66, 66, 66)" stroke-width="1px" opacity="0.25"></line><line x1="206.125" y1="0" x2="206.125" y2="177" fill="rgb(0, 0, 0)" stroke="rgb(66, 66, 66)" stroke-width="1px" opacity="0.25"></line><line x1="231.890625" y1="0" x2="231.890625" y2="177" fill="rgb(0, 0, 0)" stroke="rgb(66, 66, 66)" stroke-width="1px" opacity="0.25"></line><line x1="257.65625" y1="0" x2="257.65625" y2="177" fill="rgb(0, 0, 0)" stroke="rgb(66, 66, 66)" stroke-width="1px" opacity="0.25"></line></g><g><line x1="0" y1="177" x2="257.65625" y2="177" fill="rgb(0, 0, 0)" stroke="rgb(66, 66, 66)" stroke-width="1px" opacity="0.25"></line><line x1="0" y1="159.3" x2="257.65625" y2="159.3" fill="rgb(0, 0, 0)" stroke="rgb(66, 66, 66)" stroke-width="1px" opacity="0.25"></line><line x1="0" y1="141.6" x2="257.65625" y2="141.6" fill="rgb(0, 0, 0)" stroke="rgb(66, 66, 66)" stroke-width="1px" opacity="0.25"></line><line x1="0" y1="123.89999999999999" x2="257.65625" y2="123.89999999999999" fill="rgb(0, 0, 0)" stroke="rgb(66, 66, 66)" stroke-width="1px" opacity="0.25"></line><line x1="0" y1="106.20000000000002" x2="257.65625" y2="106.20000000000002" fill="rgb(0, 0, 0)" stroke="rgb(66, 66, 66)" stroke-width="1px" opacity="0.25"></line><line x1="0" y1="88.5" x2="257.65625" y2="88.5" fill="rgb(0, 0, 0)" stroke="rgb(66, 66, 66)" stroke-width="1px" opacity="0.25"></line><line x1="0" y1="70.79999999999998" x2="257.65625" y2="70.79999999999998" fill="rgb(0, 0, 0)" stroke="rgb(66, 66, 66)" stroke-width="1px" opacity="0.25"></line><line x1="0" y1="53.10000000000001" x2="257.65625" y2="53.10000000000001" fill="rgb(0, 0, 0)" stroke="rgb(66, 66, 66)" stroke-width="1px" opacity="0.25"></line><line x1="0" y1="35.39999999999999" x2="257.65625" y2="35.39999999999999" fill="rgb(0, 0, 0)" stroke="rgb(66, 66, 66)" stroke-width="1px" opacity="0.25"></line><line x1="0" y1="17.699999999999996" x2="257.65625" y2="17.699999999999996" fill="rgb(0, 0, 0)" stroke="rgb(66, 66, 66)" stroke-width="1px" opacity="0.25"></line><line x1="0" y1="0" x2="257.65625" y2="0" fill="rgb(0, 0, 0)" stroke="rgb(66, 66, 66)" stroke-width="1px" opacity="0.25"></line></g></g></g><g><g><line x1="0" y1="159.3" x2="257.65625" y2="159.3" fill="rgb(0, 0, 0)" stroke="rgb(153, 153, 153)" stroke-width="1.5px"></line></g></g><g><g><line x1="25.765625" y1="0" x2="25.765625" y2="177" fill="rgb(0, 0, 0)" stroke="rgb(153, 153, 153)" stroke-width="1.5px"></line></g></g><g><g><g><g><g><path stroke="rgb(255, 112, 67)" stroke-width="2px" d="M25.873840625,157.76472515855568L26.007821875,156.60434305774908L26.1959109375,154.91932965773347L26.355657812500002,153.15863804651735L26.368540625,152.1831463328027L26.4690265625,151.06453226717596L26.559206250000003,149.91347489456783L26.564359375,149.2147636847106L26.584971874999997,148.68770819143782L26.986915624999998,146.13340763066645L27.146662499999998,143.72206331150252L27.257454687499997,141.66541794274733L27.275490625,140.33419767749425L27.399165625000002,138.8505229192197L27.4326609375,137.77531437249533L27.605290625,136.17337440470436L27.625903125,135.09822691961338L27.8474875,133.22491080319088L28.378259375,129.1588477700728L28.512240624999997,125.9766970882952L28.61015,123.52476744340218L29.15638125,119.02590036031435L29.1641109375,116.28377262887986L29.2001828125,114.43856537734966L29.2104890625,113.27431973837601L29.3341640625,111.89025470815798L29.3522,110.95984739688483L29.46556875,109.77321135918906L30.1225921875,105.41941479779001L30.233384375,102.19302755771862L30.2411140625,100.21435062346015L30.6018328125,97.02771540555204L30.7048953125,94.5444692567196L31.01150625,91.35500987614763L31.1661,88.5844355316007L31.4314859375,85.4510840466291L31.593809375000003,82.67133143033031L31.7097546875,80.36080631434429L31.921032812500002,77.80339758070839L32.04213125,75.5977174883134L32.1683828125,73.57450915800464L32.170959375,72.34630041995807L32.201878125,71.4379950133572L32.289481249999994,70.40743875896122L32.6836953125,67.60401409556745L32.82540625,65.13647306052273L33.4102859375,60.414017304638215L33.593221875,56.566550728582854L34.087921875,51.515996399545294L34.129146874999996,48.257156916695465L34.281164062500004,45.459240268485175L35.087628125,39.31033875642652L35.092781249999994,35.59243448851909L35.221609375,32.647612031789976L35.4045453125,29.86672131403649L35.592634375,27.155630400086572L35.6106703125,25.42900202877342L35.8863625,22.864891391065484L35.95850625,20.926542079972613L36.164631250000006,19.14945114688711L36.57688125,18.083979596490448L36.888645312499996,17.446007176813357L37.1025,17.06447654013447L37.33954375,16.837284900029655L37.3833453125,16.701328451874954L37.79301875,16.623690235767107L37.81363125,16.57732984563163L38.10220625,16.552962974253013L38.5737171875,16.54510558045223L38.921553125,16.546284320593262L38.993696875,16.548310317443523L39.5373515625,16.56050865343017L39.573423437500004,16.568623027783936L40.0629703125,16.585096676733986L40.397923437500005,16.603787661917146L40.511292187500004,16.618146654152653L40.7303,16.63306321505235L40.874587500000004,16.64632794579731L40.8926234375,16.654834890862503L40.9853796875,16.662794981859744L41.199234374999996,16.67435849209881L41.7403125,16.699759136961436L41.7892671875,16.71675923460068L41.969626562500004,16.733581904729256L42.703946875,16.772741641981934L42.778667187500005,16.79938600656154L43.0260171875,16.826046280506315L43.0569359375,16.843402408662772L43.425384375,16.870498308042176L43.713959375,16.900417302101566L44.095290625,16.937222741983646L44.2009296875,16.964692286740142L44.785809375,17.01225536783958L44.98678125,17.051969646188173L44.9945109375,17.076235050050936L45.033159375,17.09297435553434L45.118185937499995,17.107843749726186L45.831893750000006,17.159089107814058L45.857659375,17.19142294708794L45.947839062499995,17.21641146549677L46.354935937499995,17.25726861515847L46.548178125,17.294422325993803L46.841906249999994,17.33637221090807L46.947545312500004,17.368745828839018L47.313417187499994,17.41365077569148L47.3494890625,17.44315294838882L47.661253125,17.483297775637713L47.68701875,17.509263894678128L47.9266390625,17.542543700878916L48.640346875,17.617346973036277L48.769175000000004,17.67246163357169L48.7872109375,17.706972815730413L48.936651562499996,17.739700780705046L49.624593749999995,17.81645191774991L50.16051875,17.90902984599011L50.382103125,17.9843331678047L50.4155984375,18.032527686742487L50.70675,18.087926602080483L50.753128124999996,18.125431292259698L51.126729687499996,18.182790390404445L51.2916296875,18.232861917281088L52.24238125,18.35644973661837L52.2604171875,18.43242807658068L52.559298437500004,18.50860602361889L52.7654234375,18.575726039874134L52.876215625,18.627615437272244L53.0952234375,18.681934397772288L53.4817078125,18.75616127154549L53.484284374999994,18.800977630772124L53.540968750000005,18.834049099897094L53.721328125,18.873702120573665L53.855309375000004,18.912334022695635L53.8630390625,18.93637447436888L53.9609484375,18.961719666713417L54.020209375,18.983561756972314L54.040821875000006,18.99898307067236L54.15934375,19.02159235174704L54.370621875000005,19.05917570513634L54.419576562500005,19.087330416423963L55.187392187499995,19.194030306537694L55.323949999999996,19.27439865379766L55.37548125,19.328817800152216L55.4553546875,19.3711085464614L55.47854375,19.399289464976324L55.566146874999994,19.426826339156005L55.8727578125,19.480916433075407L56.0634234375,19.5370173749562L56.6045015625,19.63898521224325L56.617384375,19.701814355572548L57.039940625,19.794116448273034L57.10693125,19.85825504647779L57.431578124999994,19.939552338158126L58.4132484375,20.12164013336451L58.9440203125,20.305369372928737L59.103767187500004,20.438355401874837L59.348540625,20.553291780447218L59.418107812500004,20.63230909742875L59.472215625,20.68755782436854L59.503134375,20.725194941038055L59.541782812499996,20.75339427360096L60.296715625000004,20.88182266167967L60.667740625,21.01491844486247L60.7991453125,21.114816835707735L60.85840625,21.18382641658116L61.347953125000004,21.30096978487777L61.53861875,21.401133798202636L62.043625,21.54140001104222L62.4069203125,21.68415769366739L62.595009375,21.800452699532038L62.662,21.88119183541533L62.708378125,21.937242871962148L62.860395312499996,21.99588858541378L62.9892234375,22.052382112854886L63.4658875,22.165947380774718L63.481346875,22.23669107823877L63.55864375,22.29218882799482L63.6075984375,22.33377089365771L63.8446421875,22.399024514455796L63.9219390625,22.45138894120557L64.0868390625,22.51111544959069L64.13579375,22.555383130117196L64.645953125,22.670650467435383L64.87784375000001,22.780626267923328L65.24886875,22.912561749806066L65.6327765625,23.06079683613928L65.63792968749999,23.150669257079976L65.7203796875,23.219539948022604L66.32071875,23.37086694875583L66.38255625,23.4731074505402L67.23539843750001,23.694548337361425L67.28950625,23.837707383231052L67.6321890625,23.989198397536995L67.8177015625,24.11587653819616L68.036709375,24.234380230464907L68.7864890625,24.45300966927909L69.0750640625,24.641804465119556L69.1987390625,24.779919226744486L69.3069546875,24.8845887153767L69.737240625,25.034720689359155L69.8171140625,25.14112356032602L70.1829859375,25.28019600708437L70.31954375,25.39190611645073L70.3839578125,25.472301038232402L70.4406421875,25.53232022304203L70.9662609375,25.67844758986005L71.0023328125,25.77373568607014L71.07705312499999,25.84670060816492L71.097665625,25.89483968775323L71.1723859375,25.939556410898852L72.0226515625,26.148675166921382L72.190128125,26.31051927025262L72.3112265625,26.434017271974046L73.30577968749999,26.727886221403395L73.669075,26.985813660640723L74.612096875,27.35569991128546L75.01919375,27.671963695440596L75.1557515625,27.89356160301949L75.4185609375,28.088073132903776L76.0884671875,28.36332298098289L76.36931249999999,28.595642737728546L76.40538437500001,28.74368890680059L76.60377968750001,28.88025133725812L76.900084375,29.03386300834602L77.13712812499999,29.183696596779445L77.2839921875,29.30947094616771L77.3870546875,29.410177307955806L77.4334328125,29.481975367632426L77.456621875,29.5307454458427L77.652440625,29.60819142194399L77.92555625,29.722187391411108L77.94616875,29.795695140058317L78.1291046875,29.885263790842572L78.43056250000001,30.01430164312972L78.5465078125,30.12080697408706L78.6856421875,30.21970245307769L78.68821875,30.27968675354768L78.74490312500001,30.329965195825082L78.786128125,30.37052980252827L79.30401718750001,30.526241068623825L79.311746875,30.62163771522484L79.4379984375,30.711115087203314L79.4998359375,30.780622422475904L80.07956250000001,30.971568425687725L80.2444625,31.12889246493879L80.4119390625,31.2668551829848L80.4712,31.36508282668251L80.69536093750001,31.482617367822574L80.70824375000001,31.556513275366218L80.8808734375,31.646158219597442L81.2209796875,31.789645100815108L81.6280765625,31.983854350817527L81.9887953125,32.1968672711386L82.0583625,32.34335598047725L82.46545937500001,32.541043616026045L83.0812578125,32.82726967387015L83.20235625,33.03218430394001L83.300265625,33.18201091178695L83.37240937499999,33.291737621208654L83.6661375,33.43858627769686L84.42107031249999,33.73680163487546L84.61431250000001,33.96995219336301L84.84620312499999,34.17513727476507L85.38212812500001,34.4501274311859L85.40789375,34.62245708729735L85.495496875,34.75082051925904L85.52126249999999,34.83519062510459L85.588253125,34.90493460371391L85.7041984375,34.979931138526176L85.763459375,35.041895637964174L85.9567015625,35.13451552811563L86.1267546875,35.23901731091469L86.41790624999999,35.385805353814234L86.752859375,35.571103227201924L86.7812015625,35.69053239822464L86.8327328125,35.7772030768548L87.44337812500001,36.008007753543836L87.8066734375,36.2536721905859L87.90715937499999,36.43082521208625L87.9818796875,36.559267950347056L88.329715625,36.739793868871644L88.33486875,36.849646591178825L88.43277812500001,36.9447809616296L88.4920390625,37.019569960881384L89.0382703125,37.22841378243213L89.2031703125,37.40348238675413L89.4556734375,37.58495351432185L89.47628593750001,37.70008790319218L89.9246078125,37.905609994530984L90.00963437499999,38.054902678817676L90.2003,38.20284546257713L90.3007859375,38.32243285762764L90.52237031249999,38.462315359413616L90.7748734375,38.624141937911496L90.83155781250001,38.73876493348628L91.03510625000001,38.87058335523426L91.1871234375,38.996873393986334L91.947209375,39.31014654812735L92.27185625,39.6003055377455L92.3620359375,39.802865385742564L92.55270156249999,39.984701264750406L92.92630312499999,40.212399876811475L92.9907171875,40.36952564955404L93.1556171875,40.516378137525315L93.1916890625,40.61600811149561L93.5369484375,40.78628521433254L93.79460468750001,40.97124030200112L93.967234375,41.137835873596174L94.8097703125,41.51100994188028L94.81234687499999,41.73575508773886L94.8922203125,41.896655784580496L95.698684375,42.25768443314485L95.71414374999999,42.479395304840814L95.729603125,42.61751963151812L95.73990937500001,42.703790015896075L95.74248593749999,42.75640531471814L96.038790625,42.885854796939746L96.6339765625,43.1611931625373L96.8864796875,43.4106768469284L96.9122453125,43.56898016156375L96.93028125,43.66999132314544L96.976659375,43.74611397060287L97.4584765625,43.95346664814669L97.69294375,44.156879787540554L97.780546875,44.308500701946706L97.826925,44.41514168188732L98.5560921875,44.72653665199585L98.7364515625,44.97488108727163L99.037909375,45.22696888258502L99.0714046875,45.38969470883426L99.3084484375,45.568651918098446L99.38316875,45.70170483266568L99.4836546875,45.81610026717338L100.408640625,46.20466694882602L100.47563124999999,46.46109530743861L100.5812703125,46.65171667705122L100.645684375,46.78852478024448L101.00382656250001,46.99562740434459L101.16357343749999,47.17580409606845L101.6994984375,47.472153826195296L101.7407234375,47.66448642910319L101.9313890625,47.8471300185892L102.0602171875,48.002221384900665L102.41062968749999,48.21935435552618L102.6219078125,48.4246546858577L103.0625,48.70477058427205L103.07538281250001,48.87743927359087L103.1423734375,49.00496348657164L103.29954375,49.1376651243818L103.51082187499999,49.29294954699738L103.6886046875,49.44990662340053L103.79424374999999,49.58203622227894L103.9050359375,49.701156799538346L104.24514218750001,49.895203094359296L104.273484375,50.02185944739046L104.63935624999999,50.23017773593553L104.881553125,50.443005885459996L104.917625,50.58380375968099L104.964003125,50.68512955079485L105.9096015625,51.090956081084954L106.685146875,51.61957458939854L106.7804796875,51.971923424410534L107.43235,52.42464799712313L107.72092500000001,52.80352618831523L107.8884015625,53.09321362443642L107.9064375,53.2737476041116L107.92705,53.38974972677663L108.050725,53.50546613614967L108.0739140625,53.583550296798116L108.22593125,53.68716073644144L108.2594265625,53.76184278819402L108.66394687500001,53.95807368445958L108.7489734375,54.1077013125334L109.3364296875,54.41838958313697L109.612121875,54.708827412094955L109.9084265625,54.99513464132177L110.034678125,55.214740251022434L110.178965625,55.401207130003186L110.519071875,55.64227145409478L110.53968437500001,55.79474838530059L110.879790625,56.015764913328205L111.183825,56.26443743682964L111.2533921875,56.44023442467043L111.2585453125,56.54768250431858L111.4904359375,56.70089517103131L111.6707953125,56.86195014259365L111.7583984375,56.992190715543316L111.8305421875,57.098024746289475L112.41799843749999,57.38754290436098L112.667925,57.657687595192435L112.69111406249999,57.82872956519059L112.7220328125,57.943297701923434L112.7709875,58.030954443945504L112.8147890625,58.10048209889026L112.9539234375,58.19600792579822L112.9848421875,58.26528698218895L113.04925625,58.331791206601444L113.1445890625,58.40861469758494L113.4125515625,58.55862238900625L113.46150625,58.667629406991686L113.7320453125,58.83816706092243L114.301465625,59.162378048307204L114.3555734375,59.37802941160293L114.49728437499999,59.56278724022594L114.7214453125,59.76132251190624L114.72402187499999,59.88145334500064L114.9121109375,60.02720067122869L115.3861984375,60.300716839994735L116.2416171875,60.80192035366789L116.40136406250001,61.16578599273232L116.599759375,61.462604134546616L116.80330781250001,61.72132850905024L116.857415625,61.8980134717063L116.878028125,62.012200716446976L116.9166765625,62.096039443089744L117.1897921875,62.25475239861707L117.42168281250001,62.44216099025278L117.9318421875,62.75781770421694L117.94987812500001,62.954407177373064L118.11993125000001,63.14023541767407L118.1328140625,63.25687549764073L118.4007765625,63.43394227019193L118.44457812499999,63.55770113999391L118.6172078125,63.7010426223859L119.155709375,64.00295206617324L119.196934375,64.200652200757L119.23042968749999,64.33272355971698L119.38759999999999,64.47512226926065L119.9879390625,64.80225590811237L120.1425328125,65.06088837062457L120.2198296875,65.24726459324441L120.268784375,65.37885513389159L120.49809843749999,65.55044771896482L120.6320796875,65.70757928206282L120.71195312500001,65.8341676626802L120.8588171875,65.96956759306494L121.2349953125,66.20325949210793L121.5338765625,66.46479576487167L121.618903125,66.65626060878529L122.27077343750001,67.03641487614985L122.3583765625,67.30021266769872L123.06693125,67.74780921500327L123.35550625,68.13444909024328L124.1697,68.70034533675367L124.3114109375,69.09811014036597L124.350059375,69.35265587225712L124.8061109375,69.69302122443264L124.84733593749999,69.91421937759577L124.875678125,70.05860923146967L125.16940625000001,70.26630052657883L125.32657656250001,70.45574436538345L125.329153125,70.57047391308355L125.47859375,70.70098806011232L125.53012500000001,70.80057379998298L125.8393125,70.98806293366869L126.2026078125,71.25082829152655L126.2644453125,71.43408367320217L126.6148578125,71.68919449178468L126.86220781249999,71.94482285818066L127.014225,72.16127747124048L127.0425671875,72.30291598640748L127.7743109375,72.69198493830706L128.060309375,73.04446847316159L128.132453125,73.28600349106809L128.2638578125,73.48566510489387L128.513784375,73.70963942057372L128.5936578125,73.87733282007041L128.60654062499998,73.98332277728848L128.87965624999998,74.16087553553272L129.59078749999998,74.56454485464461L130.0854875,75.01379063031968L130.11640625,75.29628659944248L130.4951609375,75.6244940157116L130.5363859375,75.83870030835676L130.54669218749999,75.97154505980258L130.63171875,76.08690562802028L130.667790625,76.17125053583442L130.68325,76.22834203513776L130.8713390625,76.34150368223229L131.50775,76.67664797900028L131.7344875,76.97304123154525L132.03336875,77.27658316935597L132.1029359375,77.48797846178633L132.2832953125,77.6907242827664L132.4585015625,77.88613538708091L132.66977968749998,78.09237107418583L132.7934546875,78.26821970510173L132.8346796875,78.3911013907876L133.64887343750001,78.80820683521024L134.0147453125,79.21293726174602L134.326509375,79.58747564738137L134.450184375,79.86446249930646L134.60993125000002,80.09817475206307L134.8547046875,80.34189534810425L135.140703125,80.60910060591466L135.18708125,80.78904432909246L135.72815937500002,81.1260243440624L135.9806625,81.43514259682705L136.46505625,81.82583826598739L136.5088578125,82.0788191732114L136.60934375,82.27319725022289L137.274096875,82.67168689457668L137.779103125,83.12503267348166L137.89247187499998,83.44514989015671L137.9826515625,83.67549289808252L138.12178593750002,83.87275410012501L138.20423593750002,84.02610928342028L138.3897484375,84.19687666012145L138.459315625,84.32887302699041L138.469621875,84.4124474578528L138.6319453125,84.53151549333654L139.0725375,84.7900687871125L139.08284375,84.94957737411912L139.1163390625,85.05950857178259L139.32246406250002,85.21302423181541L139.3327703125,85.30951229912732L139.4255265625,85.40680906004202L139.6496875,85.56041961123194L139.6677234375,85.66024913184508L139.7810921875,85.7683142889785L139.91764999999998,85.89117644439621L140.64166406249998,86.27257112118144L140.7962578125,86.56711066269898L141.01268906250002,86.83582151411638L141.200778125,87.07699329028227L141.23685,87.23702891743376L141.61818125,87.49513119027732L141.97889999999998,87.80331610795166L142.509671875,88.2138182640824L142.53286093749998,88.46997517413293L142.66941875,88.68170680515925L143.01725468749999,88.95656766604907L143.1100109375,89.16090252696887L143.406315625,89.40940930327052L143.87267343750003,89.75664772988648L143.962853125,90.00329849314714L144.37252656249998,90.32529425742938L144.519390625,90.58086254016067L144.72293906250002,90.82063539028097L144.81569531250003,91.00388035481754L145.106846875,91.23742743650052L145.148071875,91.39505594682083L145.35162031250002,91.57602372247061L145.5732046875,91.77863558115412L146.0807875,92.1155282358302L147.37422187500002,92.8658425661533L147.4850140625,93.36294785453657L147.6396078125,93.72666443631817L147.69113906249999,93.96670944090273L147.7581296875,94.13909168866624L147.9900203125,94.3406609697035L148.1240015625,94.51829036228827L148.2785953125,94.69026371115729L148.3713515625,94.83267649415453L148.507909375,94.97587111123022L148.518215625,95.06614388670471L148.5517109375,95.13446972036179L148.5877828125,95.19071535996015L148.64962031250002,95.2506049567471L148.68053906249997,95.29960879105762L148.781025,95.37148317290281L148.817096875,95.42985382031165L149.136590625,95.59986497818015L149.15204999999997,95.70840155964244L149.2576890625,95.81813856302288L149.3040671875,95.90356630417237L149.363328125,95.97984628259036L149.63644375,96.14090623017859L149.90698281250002,96.35169055335498L150.0255046875,96.52815011928394L150.764978125,96.9456636217753L150.785590625,97.20485282546028L151.115390625,97.49919804507566L151.61524375,97.88603909430473L151.97080937500002,98.26755016998617L152.71801250000001,98.81002119369754L152.857146875,99.19382770953669L152.9215609375,99.45110896081461L153.24620781250002,99.74146584833477L153.454909375,100.00304116991795L153.6120796875,100.22574679374777L153.661034375,100.37984586528367L154.609209375,100.86835973255069L154.7380375,101.21519692535539L154.97765781249998,101.52318239972944L155.0188828125,101.72515043912652L155.09617968749998,101.87853149630995L155.28426875,102.04888374214393L155.577996875,102.27331874440624L155.804734375,102.50224996299602L156.21440781249999,102.80976695139219L156.2195609375,102.99641599657168L156.70395468750002,103.30929886256622L157.11620468750002,103.66774112767708L157.2089609375,103.92118425277536L157.515571875,104.20001729798415L157.7551921875,104.46629158072308L157.896903125,104.68454695662564L158.051496875,104.87927630224499L159.102734375,105.42879669202819L159.21610312500002,105.80506501962812L159.226409375,106.0350563277942L159.247021875,106.18151379645717L159.628353125,106.42581296117366L159.74945156249998,106.62201671446495L159.91950468750002,106.80938147577349L159.9246578125,106.92391033698368L160.3575203125,107.16967639415263L160.49923125,107.37502721431507L160.6564015625,107.56240327066647L160.7440046875,107.71057534663136L161.060921875,107.92867927332298L161.10729999999998,108.07843482325721L161.504090625,108.32976324771865L161.813278125,108.60618386663138L162.081240625,108.88076534295612L162.1662671875,109.07998518971448L162.3311671875,109.2663325308619L162.3569328125,109.38857762735981L162.56048125,109.54431788539527L162.5991296875,109.65339750269436L162.69446250000001,109.75740024650848L163.3566390625,110.08710689674172L163.37725156250002,110.2932390293053L163.52926875,110.47815376929617L163.565340625,110.6036253781225L164.142490625,110.91092846867699L164.1605265625,111.10254903936243L164.1708328125,111.22165896857594L164.18113906250002,111.29726045235508L164.54443437499998,111.48828582779402L164.6294609375,111.63695166157683L164.657803125,111.73749861728476L165.0855125,111.96885460055665L165.12416093750002,112.12310377953153L165.17826875,112.23725610565887L165.2169171875,112.32117484814223L165.52095156250002,112.49277304712712L165.848175,112.72600001315044L166.100678125,112.96629327823084L166.5103515625,113.27298903123652L166.5670359375,113.47946443052881L166.6804046875,113.6482408384676L166.75254843750002,113.77805974115849L166.9792859375,113.94560566532566L167.3142390625,114.17836085064607L167.43018437499998,114.36372522957785L167.9738390625,114.68884349497505L168.2469546875,114.99110226689561L168.254684375,115.17548860085776L168.321675,115.31238212623236L168.4015484375,115.42581801412949L168.86275312499998,115.6742952279654L168.8756359375,115.8284134222884L168.89624843750002,115.9289349124063L169.31365156249998,116.15203753264124L169.45020937500001,116.33906235592328L169.52492968750002,116.48034544561922L169.965521875,116.73623171298539L170.2875921875,117.01453087861887L170.8364,117.3934875217709L170.92142656250002,117.65363148361307L171.0296421875,117.85139766004225L171.1662,118.02260760305994L171.3594421875,118.19961231839612L171.39551406249998,118.31966926356638L171.41355,118.39862894323944L171.619675,118.52509282706107L172.0808796875,118.7775109416514L172.16590625,118.96144433946463L172.2586625,119.10721598073724L172.6271109375,119.33510759008233L172.72244375,119.5081154686741L173.3021703125,119.83194070119602L173.40007968749998,120.06330000535327L173.41553906250002,120.20796549269402L173.8380953125,120.4543895046251L173.87674375,120.61681819039543L173.964346875,120.74729367422772L174.587875,121.05993781539367L175.9663359375,121.7614917060979L176.097740625,122.23111589556547L176.3399375,122.60249450829431L176.63881874999998,122.93564461725909L176.7805296875,123.18774595912632L176.85782656249998,123.36745782489008L176.8681328125,123.47907738882523L177.0587984375,123.61614186695647L177.128365625,123.72392726756739L177.17216718749998,123.8046749283678L177.23658125,123.87675392596762L177.4530125,123.9993036978697L177.81888437499998,124.20654890979486L177.860109375,124.34593600013201L177.87556874999999,124.43520592240746L178.46302500000002,124.70244806510847L178.5841234375,124.9066995756206L178.89588750000001,125.14206462965173L179.39058749999998,125.46162951949135L179.4318125,125.66819308897718L179.509109375,125.81991261217327L179.68173906250001,125.97291643359635L179.7178109375,126.0776558971364L180.07337656250002,126.26778085293375L180.3799875,126.49126491328403L180.58095937500002,126.69689356592866L180.82057968750001,126.90538388523129L180.8360390625,127.03596223382193L180.8927234375,127.13441095017217L181.1246140625,127.27559829653431L181.38484687500002,127.4522411657006L181.5832421875,127.62815169204805L181.6553859375,127.75909018024895L181.89500625,127.9218607886346L182.0882484375,128.08728334948194L182.6035609375,128.36657445594346L183.250278125,128.7587337460871L183.4641328125,129.06795777599547L183.64706875,129.31659863487948L183.8969953125,129.5517977690742L183.9279140625,129.70354248183492L184.00005781250002,129.8193664073517L184.064471875,129.91096738617168L184.311821875,130.0506722625154L184.688,130.2629375865941L185.87064218749998,130.79059285002444L185.9376328125,131.12969959045384L186.0767671875,131.37986705785204L186.84200625,131.78549031049513L186.9218796875,132.05540210093855L186.9424921875,132.22419432627888L187.76441562500003,132.5970194008923L188.1509,132.9474682222274L188.65590625,133.32245282628563L189.011471875,133.6627942749671L189.19183125,133.9253127430323L189.1944078125,134.08365628655477L189.41083906249997,134.24845946334173L189.671071875,134.43100799018998L189.81793593749998,134.5876310038912L190.1013578125,134.77223403538042L190.2353390625,134.92572138333L190.3177890625,135.04407036571908L190.63470625,135.21573459026675L190.8743265625,135.39455625764256L190.91812812499998,135.51568379880027L190.9980015625,135.61356601600406L191.11137031250001,135.70802530407084L191.2453515625,135.80685666356118L191.9822484375,136.09663946359717L192.00801406250002,136.27852674832374L192.0131671875,136.38926119771486L192.4357234375,136.5867580748145L192.9561890625,136.8656134465512L193.21384531249998,137.1118735978541L193.2421875,137.2682963669676L193.381321875,137.4046427152066L193.8734453125,137.63606354055136L193.948165625,137.79753882734283L193.99454375000002,137.90845274710017L194.14398437499997,138.02014056373713L194.2083984375,138.10657910012276L194.401640625,138.21660952167554L194.4815140625,138.30662134787514L194.6000359375,138.3961791333853L194.79070156249998,138.50697149759355L194.89891718750002,138.60575893456607L195.0689703125,138.7156998355297L195.29313125,138.8482552091199L195.5791296875,139.01241887687215L195.68476875000002,139.1420829143681L195.9218125,139.28962893431049L195.9450015625,139.384966152842L196.586565625,139.6295828271969L197.194634375,139.952229118622L197.4857859375,140.22942066744162L197.84650468750002,140.498766247377L198.26133125,140.77810267280316L198.333475,140.9660962578356L198.4494203125,141.11161344671507L199.529,141.5005261235128L199.61660312499998,141.75810272083353L199.7170890625,141.94039606163585L200.22724843749998,142.18989057774374L201.16511718750002,142.59388557706419L201.64951093750003,142.96593863958353L201.6520875,143.18985715578134L201.69588906250002,143.3358751063737L201.84790625,143.46390307330742L201.945815625,143.56669052560852L202.0772203125,143.66314458604552L202.291075,143.777438520028L202.492046875,143.898830928682L202.7522796875,144.03975780329517L203.069196875,144.20678027776725L203.36550156250001,144.38364111557624L203.51751875,144.52891015154322L203.9890296875,144.73676887458663L203.99160625,144.8621403939687L204.02510156250003,144.9458945026886L204.38839687499998,145.0883092412791L204.517225,145.20627873368957L204.7207734375,145.3282707928806L204.77488125,145.41504351536568L205.1484828125,145.5604465120862L205.254121875,145.6739510653914L205.3236890625,145.75931761043526L205.4009859375,145.8296903608315L205.60453437500001,145.92220279329146L205.9059921875,146.0517963407561L207.305065625,146.4672155089164L207.315371875,146.71891649004723L207.377209375,146.88462262710203L207.3952453125,146.9883255590319L207.4880015625,147.07252876321454L207.61940625,147.1541134950089L207.81522500000003,147.2491856515131L208.4825546875,147.4618855584759L208.69125625,147.6377012799981L209.4023875,147.90567290180957L209.510603125,148.0909444955893L209.80433125,148.26826041773995L210.128978125,148.4472272204055L210.19596875,148.56951307179023L210.49485,148.70909163797276L210.6829390625,148.83425611429757L210.891640625,148.95508693091284L211.035928125,149.05906446150846L211.087459375,149.13266604488965L211.1673328125,149.19418198736955L211.2240171875,149.243386861846L211.30904375,149.29132003876447L211.37345781250002,149.33400102879799L211.3811875,149.36127866928715L211.7857078125,149.46453457642775L211.9866796875,149.56932363168826L212.0407875,149.64369184969334L212.0433640625,149.6888595992701L212.0485171875,149.71705414413253L212.3113265625,149.78956351205156L212.31905625,149.83469851366146L212.42211874999998,149.88347274005355L212.71584687499998,149.97424215341044L213.1409796875,150.11688174147613L213.5274640625,150.28175988302186L213.72070625,150.42002346299407L213.8778765625,150.5348222783388L214.3158921875,150.69171234538138L214.67403437500002,150.85701215741258L215.78195625,151.17178931928632L215.8618296875,151.37593151270462L215.8875953125,151.50333690987466L215.900478125,151.58223864332277L216.0215765625,151.65264472077678L216.15555781249998,151.72031041763395L216.1761703125,151.76481200457633L216.23543125,151.80271797657855L216.4595921875,151.86766551181435L216.9130671875,151.9911400707755L216.931103125,152.06856186881464L217.47218125,152.21425779004508L218.6599765625,152.5136586682089L218.7527328125,152.70951186948886L219.0078125,152.87135242814364L219.36853125000002,153.0305017628405L219.4484046875,153.13962809147597L220.1492296875,153.32316806326045L220.21622031249998,153.44442803770283L220.2625984375,153.5248783781043L220.46872343750002,153.60719352434884L220.62847031249999,153.68279720198427L220.80367656250002,153.75673976879654L221.3988625,153.8968528125396L221.404015625,153.98174060937714L221.501925,154.0482222068072L221.72866249999998,154.12390319711454L221.78019375,154.1774042197692L221.8394546875,154.21879173760388L222.14606562499998,154.29134442467617L222.6948734375,154.41890750404184L222.82627812500002,154.51530159569583L223.19730312500002,154.6286514892532L223.31840156250001,154.71460380371417L223.4008515625,154.77834158814505L223.619859375,154.84870528991212L223.91874062500003,154.93429940149977L223.9367765625,154.98825641284657L223.96511875000002,155.02471321549686L224.3490265625,155.10141701900815L224.671096875,155.1927594504805L224.99574375,155.29262066425412L225.196715625,155.38011297647216L225.34615625,155.4529565644357L225.526515625,155.52104251504664L225.8176671875,155.60083824545507L226.227340625,155.70265061126423L226.3381328125,155.77815068487698L226.48242031249998,155.84210979283412L226.9771203125,155.94350644324172L227.0853359375,156.01793325348828L227.273425,156.08603970009503L227.42028906250002,156.14506539508807L228.73433593750002,156.33716029563644L228.90954218750002,156.47251488645117L229.1079375,156.5762593819186L229.144009375,156.64257702004852L229.1929640625,156.68787970616114L229.2444953125,156.7208477319414L229.32694531250002,156.74985318436995L229.61294375,156.7989326010539L230.11022031250002,156.8822664981064L230.28800312500002,156.95116466649728L230.39106562499998,157.00337014183458L230.85227031250002,157.08252371411305L230.91153125,157.1360670524215L231.10735,157.18803481119056L231.40623125000002,157.24904587294472L231.4706453125,157.29200950361457L231.808175,157.3506809690781L231.8262109375,157.38762179450586L231.885471875,157.41548242597588L231.97049843750003,157.44033373219662L231.98080468749998,157.45622759202635L232.14828125,157.48164631458442L232.31575781249998,157.5126069972635L232.7949984375,157.57517997405398L232.89548437500002,157.62176887156573L232.936709375,157.6534149753855L233.307734375,157.70516450020796L233.374725,157.74203874941125L233.4700578125,157.77240415148185L233.5628140625,157.79858748749027L233.8771546875,157.8408903833052L234.018865625,157.87806040540397L234.1193515625,157.90864586666862L234.1245046875,157.927420232541L234.32805312500003,157.95526559240358L234.45688125,157.982334032443L234.5058359375,158.00248531432283L234.7686453125,158.03531324531784L235.4488578125,158.1066878230162L235.740009375,158.17075176548366L235.8301890625,158.2156614529768L236.05692656250002,158.25865403328694L236.4743296875,158.31315141763628L236.920075,158.37529921374778L237.24987499999997,158.43357759958786L237.687890625,158.49536953048806L238.0949875,158.5562988692273L238.1542484375,158.59624232834173L238.2985359375,158.62836018581393L238.399021875,158.653230931115L238.7133625,158.68526250513406L238.8190015625,158.7100920567862L238.9401,158.7313353034808L239.027703125,158.7486142387567L239.1848734375,158.7669935220133L239.2312515625,158.78035563208053L239.26732343749998,158.79017930930362L239.42449374999998,158.80384889289047L239.8135546875,158.83063021463047L239.94753593750002,158.85287702310276L240.3082546875,158.8822970372623L240.645784375,158.9142463573124L240.934359375,158.94507090985064L241.583653125,158.9878715008342L241.9984796875,159.02768956280028L242.05774062499998,159.05351149865717L242.1221546875,159.07107855665626L242.6220078125,159.09682264089912L242.66065625,159.1133789880291L242.70445781249998,159.12455928489834L242.7250703125,159.13184985849787L242.830709375,159.1391668790407L242.8538984375,159.1441936165584L243.21204062500001,159.15660939458698L243.2506890625,159.16502480916964L243.32283281250002,159.17185193127284L243.4207421875,159.17830846129277L243.7453890625,159.18957531101157L243.964396875,159.2009466708146L244.10353125,159.21054158405124L244.304503125,159.22008672859553L244.670375,159.23205497336366L244.82496875,159.24161875651868L244.86619375,159.24796693548004L244.90741875,159.25237501049713L245.0027515625,159.25636427964207L245.15219218750002,159.26074969387045L245.2088765625,159.2640995385085L245.3995421875,159.2683774561627L245.4768390625,159.27179818952135L245.5979375,159.27511257930468L246.08233125,159.2812216734058L246.16220468749998,159.28542405613314L246.24723125,159.28847271622723L246.41213125,159.29119409447955L246.51261718749998,159.29328626361868L246.540959375,159.2946595764309L246.7032828125,159.29606157249856L247.200559375,159.29763618767672" style="fill: none;" fill="none"></path></g></g></g></g><g opacity="0.2"><g><g><g><path stroke="rgb(255, 112, 67)" stroke-width="2px" d="M25.873840625,157.76472515855568L26.007821875,155.90811379726512L26.1959109375,153.30171679371853L26.355657812500002,151.0880647117272L26.368540625,150.90954435137684L26.4690265625,149.5170863133506L26.559206250000003,148.26744443482022L26.564359375,148.19603603311117L26.584971874999997,147.91040371411947L26.986915624999998,142.34056898632554L27.146662499999998,140.12691754825647L27.257454687499997,138.5916420628899L27.275490625,138.3417139447527L27.399165625000002,136.6279174551135L27.4326609375,136.16376541969368L27.605290625,133.77159426519648L27.625903125,133.48596065836028L27.8474875,130.4154122633161L28.378259375,123.06037264417391L28.512240624999997,121.2037619268056L28.61015,119.84700744571164L29.15638125,112.27774777282029L29.1641109375,112.17063517025672L29.2001828125,111.67077635829337L29.2104890625,111.52795955487527L29.3341640625,109.81416306523606L29.3522,109.56423881063238L29.46556875,107.99325912441127L30.1225921875,98.88872396615334L30.233384375,97.35344848078675L30.2411140625,97.24633587822318L30.6018328125,92.24776321272365L30.7048953125,90.81960032992065L31.01150625,86.57082103374412L31.1661,84.42857413385062L31.4314859375,80.75105689996852L31.593809375000003,78.50170254888943L31.7097546875,76.8950186618138L31.921032812500002,73.96728449449873L32.04213125,72.28919735709205L32.1683828125,70.53969666659832L32.170959375,70.5039873143658L32.201878125,70.0755369041115L32.289481249999994,68.86160437781363L32.6836953125,63.398877101205294L32.82540625,61.43516150834039L33.4102859375,53.33033367125318L33.593221875,50.79535086471588L34.087921875,43.94016490615905L34.129146874999996,43.36889769248665L34.281164062500004,41.26236529620365L35.087628125,30.086986488383268L35.092781249999994,30.015578086674218L35.221609375,28.23037834670395L35.4045453125,25.69538523741067L35.592634375,23.08899402916432L35.6106703125,22.839059471804653L35.8863625,19.018725434504454L35.95850625,18.019018113333736L36.164631250000006,16.483814747259025L36.57688125,16.485772270895545L36.888645312499996,16.48904854729772L37.1025,16.492180585116152L37.33954375,16.496497439872478L37.3833453125,16.497393779642884L37.79301875,16.507232911605392L37.81363125,16.507789260428403L38.10220625,16.516412667185072L38.5737171875,16.533319489751015L38.921553125,16.548052430804823L38.993696875,16.551349312718962L39.5373515625,16.57880615741015L39.573423437500004,16.580794589314614L40.0629703125,16.609807150159035L40.397923437500005,16.631824139691894L40.511292187500004,16.63968514250592L40.7303,16.655438056401913L40.874587500000004,16.666225041914736L40.8926234375,16.6675953084603L40.9853796875,16.674735118355606L41.199234374999996,16.69170375745744L41.7403125,16.737860104255383L41.7892671875,16.74225938105956L41.969626562500004,16.758815909922127L42.703946875,16.831481247860943L42.778667187500005,16.83935255343095L43.0260171875,16.86603669142351L43.0569359375,16.869436600897465L43.425384375,16.91114215711132L43.713959375,16.945295793190603L44.095290625,16.992430901806806L44.2009296875,17.005896603874866L44.785809375,17.083599989488725L44.98678125,17.11154106371105L44.9945109375,17.11263315584511L45.033159375,17.11808331375942L45.118185937499995,17.130147841013972L45.831893750000006,17.235957144945864L45.857659375,17.239923705998812L45.947839062499995,17.253894243109976L46.354935937499995,17.318554339651023L46.548178125,17.350152892246847L46.841906249999994,17.399297038279478L46.947545312500004,17.41730625573546L47.313417187499994,17.48100819597021L47.3494890625,17.487406207434837L47.661253125,17.543515016511087L47.68701875,17.548213073238735L47.9266390625,17.592463410180066L48.640346875,17.72955188127235L48.769175000000004,17.75513362437487L48.7872109375,17.75873958896846L48.936651562499996,17.78879272816703L49.624593749999995,17.931578623317186L50.16051875,18.047896738350396L50.382103125,18.097288150526587L50.4155984375,18.1048194651492L50.70675,18.171024975087498L50.753128124999996,18.18168832752854L51.126729687499996,18.26882903762162L51.2916296875,18.307969207596038L52.24238125,18.541831465624277L52.2604171875,18.546395586524163L52.559298437500004,18.6228729441762L52.7654234375,18.67640606425703L52.876215625,18.705449533369396L53.0952234375,18.76341283852235L53.4817078125,18.8675015822053L53.484284374999994,18.868202169612054L53.540968750000005,18.88365630358458L53.721328125,18.933181651588534L53.855309375000004,18.970281875878577L53.8630390625,18.97243515187875L53.9609484375,18.99973745523021L54.020209375,19.01632489236072L54.040821875000006,19.022115041222428L54.15934375,19.055506273359065L54.370621875000005,19.115550735220317L54.419576562500005,19.129562483355407L55.187392187499995,19.35408014170826L55.323949999999996,19.3949511746876L55.37548125,19.41044651968405L55.4553546875,19.43454466592521L55.47854375,19.441560842748736L55.566146874999994,19.468131650425498L55.8727578125,19.562051573954527L56.0634234375,19.621168787777428L56.6045015625,19.791936968173836L56.617384375,19.79605807056651L57.039940625,19.93256958732382L57.10693125,19.954462943784897L57.431578124999994,20.06149827567861L58.4132484375,20.394771826174114L58.9440203125,20.580963232275103L59.103767187500004,20.637834445293997L59.348540625,20.725696348305796L59.418107812500004,20.750835072901104L59.472215625,20.770430914778267L59.503134375,20.78165061604232L59.541782812499996,20.795693272445355L60.296715625000004,21.074465243797754L60.667740625,21.21456211963669L60.7991453125,21.264664421975617L60.85840625,21.287340787891303L61.347953125000004,21.476684837322686L61.53861875,21.551379818189893L62.043625,21.751799330301587L62.4069203125,21.898294217605148L62.595009375,21.974895208328967L62.662,22.002300539240245L62.708378125,22.021319426782433L62.860395312499996,22.083857155591254L62.9892234375,22.13712240401656L63.4658875,22.33629528265447L63.481346875,22.342806624434893L63.55864375,22.375435452628885L63.6075984375,22.39614399215207L63.8446421875,22.496904945652936L63.9219390625,22.529935581330214L64.0868390625,22.6007052121684L64.13579375,22.621784650906925L64.645953125,22.843551473412667L64.87784375000001,22.945589968655263L65.24886875,23.110464972630147L65.6327765625,23.28314946563915L65.63792968749999,23.28547788849101L65.7203796875,23.322845984436576L66.32071875,23.59785744985566L66.38255625,23.626468203216795L67.23539843750001,24.026709667593245L67.28950625,24.05244595203549L67.6321890625,24.21643491899595L67.8177015625,24.30589374918491L68.036709375,24.412135768868033L68.7864890625,24.780953827500348L69.0750640625,24.924996658880268L69.1987390625,24.987091369181876L69.3069546875,25.041592948324983L69.737240625,25.259918650332843L69.8171140625,25.300727866776292L70.1829859375,25.48880467722193L70.31954375,25.559471280500297L70.3839578125,25.59289342090488L70.4406421875,25.622349000256513L70.9662609375,25.897638640087102L71.0023328125,25.916667830385272L71.07705312499999,25.956147991307084L71.097665625,25.967048307135705L71.1723859375,26.006631495617334L72.0226515625,26.46235330095515L72.190128125,26.55328542524949L72.3112265625,26.619264274556194L73.30577968749999,27.168689645547424L73.669075,27.372704819496725L74.612096875,27.91052928725258L75.01919375,28.14635937167332L75.1557515625,28.22595846438781L75.4185609375,28.379840427730237L76.0884671875,28.77619775310159L76.36931249999999,28.944122372847055L76.40538437500001,28.96575816040859L76.60377968750001,29.085094982944433L76.900084375,29.264280514977877L77.13712812499999,29.408446979429577L77.2839921875,29.498132470250134L77.3870546875,29.561236850637947L77.4334328125,29.589672457147394L77.456621875,29.6039005631581L77.652440625,29.724360386095945L77.92555625,29.893181345611815L77.94616875,29.905956763029103L78.1291046875,30.019616767019038L78.43056250000001,30.20785842156038L78.5465078125,30.280564970523123L78.6856421875,30.3680456715636L78.68821875,30.369663204252724L78.74490312500001,30.40538285924122L78.786128125,30.43137671258301L79.30401718750001,30.759807967767124L79.311746875,30.76473268512637L79.4379984375,30.84533114517108L79.4998359375,30.884883425384764L80.07956250000001,31.25798743050546L80.2444625,31.364878523815428L80.4119390625,31.473799260053788L80.4712,31.51242429222912L80.69536093750001,31.65891917953268L80.70824375000001,31.66735713668168L80.8808734375,31.78062563594431L81.2209796875,32.00487542264164L81.6280765625,32.27516822582111L81.9887953125,32.51638665162027L82.0583625,32.563089044485245L82.46545937500001,32.83757506934926L83.0812578125,33.256608760636304L83.20235625,33.33955624904484L83.300265625,33.40675082355738L83.37240937499999,33.45632768534124L83.6661375,33.65885926242918L84.42107031249999,34.184124670643364L84.61431250000001,34.31967803109438L84.84620312499999,34.482914896868174L85.38212812500001,34.862612665817146L85.40789375,34.88095157146454L85.495496875,34.94336566720158L85.52126249999999,34.96174578387291L85.588253125,35.00955057162792L85.7041984375,35.09242594074458L85.763459375,35.134842387121175L85.9567015625,35.273445363342766L86.1267546875,35.3957699851133L86.41790624999999,35.60598741816357L86.752859375,35.849050037283455L86.7812015625,35.869676154758785L86.8327328125,35.90720909480006L87.44337812500001,36.35421476857737L87.8066734375,36.622168846149L87.90715937499999,36.69655474433676L87.9818796875,36.75193205773831L88.329715625,37.01058274665848L88.33486875,37.01442567463965L88.43277812500001,37.087482517305766L88.4920390625,37.13175345975906L89.0382703125,37.54167951475829L89.2031703125,37.666085293237124L89.4556734375,37.85716020567343L89.47628593750001,37.872789486497645L89.9246078125,38.21389313153923L90.00963437499999,38.278841705247764L90.2003,38.42475963821635L90.3007859375,38.50181395020336L90.52237031249999,38.67213911209256L90.7748734375,38.866881805658345L90.83155781250001,38.910699426848446L91.03510625000001,39.06831098785624L91.1871234375,39.18630845211447L91.947209375,39.7800562793389L92.27185625,40.035544022172694L92.3620359375,40.10670515773818L92.55270156249999,40.25745508326218L92.92630312499999,40.553947794903074L92.9907171875,40.60521430866793L93.1556171875,40.73665686948225L93.1916890625,40.76545307245106L93.5369484375,41.041700868587945L93.79460468750001,41.24867293350399L93.967234375,41.387729230988775L94.8097703125,42.07077104430646L94.81234687499999,42.072872806526725L94.8922203125,42.13800682984293L95.698684375,42.79922740599141L95.71414374999999,42.81196161238477L95.729603125,42.82470612153411L95.73990937500001,42.83319559246302L95.74248593749999,42.83532826295123L96.038790625,43.0800290202722L96.6339765625,43.57420071093366L96.8864796875,43.784902373515074L96.9122453125,43.80643513351679L96.93028125,43.821508065517996L96.976659375,43.860297941789035L97.4584765625,44.26449566446245L97.69294375,44.46199949663133L97.780546875,44.53593207355589L97.826925,44.57510315179825L98.5560921875,45.193629107158635L98.7364515625,45.347397740185265L99.037909375,45.60510057555512L99.0714046875,45.63378344820813L99.3084484375,45.83708773199469L99.38316875,45.901284204516564L99.4836546875,45.987693418934946L100.408640625,46.78751697130502L100.47563124999999,46.84573784535751L100.5812703125,46.93764873147011L100.645684375,46.9937369350344L101.00382656250001,47.306281340494756L101.16357343749999,47.44606913365424L101.6994984375,47.91667842138559L101.7407234375,47.952985333465044L101.9313890625,48.12109540281818L102.0602171875,48.23485843436793L102.41062968749999,48.54505381146446L102.6219078125,48.732605181355034L103.0625,49.12494443189353L103.07538281250001,49.13644230756909L103.1423734375,49.196249806042765L103.29954375,49.33671758109704L103.51082187499999,49.525876180920754L103.6886046875,49.685342238005255L103.79424374999999,49.78023062059656L103.9050359375,49.87983766542748L104.24514218750001,50.1862725365907L104.273484375,50.21184397693724L104.63935624999999,50.54265516875312L104.881553125,50.76224810974673L104.917625,50.7950005710125L104.964003125,50.837118237465624L105.9096015625,51.69969587652013L106.685146875,52.4125023518689L106.7804796875,52.500446676928554L107.43235,53.10373485619203L107.72092500000001,53.37184347510338L107.8884015625,53.52774477861822L107.9064375,53.54454857362435L107.92705,53.563752910774205L108.050725,53.679040750209246L108.0739140625,53.70067653777078L108.22593125,53.84257639590651L108.2594265625,53.873865865822886L108.66394687500001,54.25242002885789L108.7489734375,54.33214275464416L109.3364296875,54.884421989042316L109.612121875,55.14448415553198L109.9084265625,55.424595485161994L110.034678125,55.54414866557345L110.178965625,55.68090744847432L110.519071875,56.00386794023216L110.53968437500001,56.023463782109324L110.879790625,56.347289705369626L111.183825,56.637446222081785L111.2533921875,56.70392990643159L111.2585453125,56.708854623790835L111.4904359375,56.93071417110041L111.6707953125,57.103532599937175L111.7583984375,57.187551574967806L111.8305421875,57.25677579240874L112.41799843749999,57.8218201414682L112.667925,58.0629046314396L112.69111406249999,58.0852925201878L112.7220328125,58.11514990702272L112.7709875,58.16243955697865L112.8147890625,58.204773581307386L112.9539234375,58.33929666616023L112.9848421875,58.36920556677506L113.04925625,58.431547543220226L113.1445890625,58.52384993406013L113.4125515625,58.783633926138286L113.46150625,58.83113993396983L113.7320453125,59.09397354181856L114.301465625,59.64869452938438L114.3555734375,59.70150645654649L114.49728437499999,59.83992398316041L114.7214453125,60.059125419426714L114.72402187499999,60.061649594642226L114.9121109375,60.245821660570805L115.3861984375,60.710991093143825L116.2416171875,61.55372562417761L116.40136406250001,61.71158445132897L116.599759375,61.90783134726808L116.80330781250001,62.1094150708057L116.857415625,62.16304091569037L116.878028125,62.18348158355803L116.9166765625,62.22179753305391L117.1897921875,62.49282183190808L117.42168281250001,62.72327387770638L117.9318421875,63.23130277516321L117.94987812500001,63.24929138710723L118.11993125000001,63.41897777812556L118.1328140625,63.4318356175907L118.4007765625,63.69954242901877L118.44457812499999,63.74333944469691L118.6172078125,63.916054845973854L119.155709375,64.45581623185426L119.196934375,64.49720240263268L119.23042968749999,64.5308305981569L119.38759999999999,64.6887203335762L119.9879390625,65.29295636638999L120.1425328125,65.44883706439286L120.2198296875,65.52682892717421L120.268784375,65.57624094486236L120.49809843749999,65.80783659657463L120.6320796875,65.94327662670985L120.71195312500001,66.02405023360625L120.8588171875,66.17266748864203L121.2349953125,66.55379734067246L121.5338765625,66.85710017401725L121.618903125,66.94345787465572L122.27077343750001,67.6066462771967L122.3583765625,67.69590935502201L123.06693125,68.41920403596014L123.35550625,68.71440890310332L124.1697,69.54918970651924L124.3114109375,69.69475734578445L124.350059375,69.73447447009384L124.8061109375,70.20356925269589L124.84733593749999,70.24601660734042L124.875678125,70.27519401228055L125.16940625000001,70.57783746924251L125.32657656250001,70.73991012359038L125.329153125,70.74256823463365L125.47859375,70.89675928065553L125.53012500000001,70.94995240978896L125.8393125,71.26929663419723L126.2026078125,71.64497632831335L126.2644453125,71.70896674571559L126.6148578125,72.07186071965843L126.86220781249999,72.3282654077746L127.014225,72.48595939083025L127.0425671875,72.51537375915795L127.7743109375,73.27558836615644L128.060309375,73.57319377544336L128.132453125,73.64830601792782L128.2638578125,73.78515752563251L128.513784375,74.0456008940935L128.5936578125,74.12887291931546L128.60654062499998,74.14230771311557L128.87965624999998,74.42720467289908L129.59078749999998,75.17004883331245L130.0854875,75.68765929383224L130.11640625,75.72003055312669L130.4951609375,76.1168051401153L130.5363859375,76.1600097473245L130.54669218749999,76.17081218697129L130.63171875,76.25994648034683L130.667790625,76.29776789755559L130.68325,76.31397928409277L130.8713390625,76.51124615287407L131.50775,77.17936442415228L131.7344875,77.41763111036269L132.03336875,77.73189607607199L132.1029359375,77.8050714004319L132.2832953125,77.99484301423652L132.4585015625,78.17925204355268L132.66977968749998,78.40172460484317L132.7934546875,78.53199265147558L132.8346796875,78.57542391931636L133.64887343750001,79.43386500184423L134.0147453125,79.8200329015497L134.326509375,80.14928322583435L134.450184375,80.27994277719407L134.60993125000002,80.44874313119797L134.8547046875,80.707476242166L135.140703125,81.00990849263033L135.18708125,81.05895991385913L135.72815937500002,81.63149436651727L135.9806625,81.89881997597402L136.46505625,82.4118817697279L136.5088578125,82.45829053404739L136.60934375,82.5647643657401L137.274096875,83.26942136110736L137.779103125,83.80505134183912L137.89247187499998,83.9253257151693L137.9826515625,84.02100740997119L138.12178593750002,84.16864590318872L138.20423593750002,84.25614205836317L138.3897484375,84.45302772517314L138.459315625,84.52686757729387L138.469621875,84.53780910414642L138.6319453125,84.71011754656209L139.0725375,85.17789872777647L139.08284375,85.18884025462901L139.1163390625,85.22440536827779L139.32246406250002,85.44329772186464L139.3327703125,85.45424440009518L139.4255265625,85.55275420141405L139.6496875,85.79083543801679L139.6677234375,85.80999341276473L139.7810921875,85.93041202467865L139.91764999999998,86.07546967752276L140.64166406249998,86.84466313635929L140.7962578125,87.00891997497527L141.01268906250002,87.23888779124243L141.200778125,87.43875095453112L141.23685,87.47708235816097L141.61818125,87.8822845995426L141.97889999999998,88.26559348446315L142.509671875,88.82957149827851L142.53286093749998,88.85421053920871L142.66941875,88.99930425169876L143.01725468749999,89.36885895738376L143.1100109375,89.46740481834857L143.406315625,89.78216946772298L143.87267343750003,90.27750536981037L143.962853125,90.37327463803811L144.37252656249998,90.80828790385276L144.519390625,90.96421496425755L144.72293906250002,91.1802946654614L144.81569531250003,91.27874780162237L145.106846875,91.58774805902503L145.148071875,91.63149871230125L145.35162031250002,91.84747538594529L145.5732046875,92.08255336917937L146.0807875,92.62086721784435L147.37422187500002,93.99131406163796L147.4850140625,94.10860578711144L147.6396078125,94.27223930899054L147.69113906249999,94.32677694777958L147.7581296875,94.39766506031155L147.9900203125,94.64301489125937L148.1240015625,94.78473445116542L148.2785953125,94.94822373446077L148.3713515625,95.04629566865042L148.507909375,95.19066303684376L148.518215625,95.2015530499164L148.5517109375,95.23695847084745L148.5877828125,95.27508381935768L148.64962031250002,95.34043935192749L148.68053906249997,95.3731145425234L148.781025,95.47929474567063L148.817096875,95.51740979142487L149.136590625,95.85488171498291L149.15204999999997,95.87120643183589L149.2576890625,95.9827440680936L149.3040671875,96.03170791589655L149.363328125,96.09426625021733L149.63644375,96.38249615156091L149.90698281250002,96.66786703811958L150.0255046875,96.7928394681774L150.764978125,97.57193387551233L150.785590625,97.59363663098775L151.115390625,97.94071587449871L151.61524375,98.46630066814832L151.97080937500002,98.83981678350828L152.71801250000001,99.62372772926464L152.857146875,99.76953748329542L152.9215609375,99.83703083773143L153.24620781250002,100.17700117961503L153.454909375,100.39540415229276L153.6120796875,100.55980522949248L153.661034375,100.61099447258748L154.609209375,101.60113053345121L154.7380375,101.73545271456241L154.97765781249998,101.98516061129048L155.0188828125,102.02810249822214L155.09617968749998,102.10860308208503L155.28426875,102.30441211089492L155.577996875,102.60997124779969L155.804734375,102.8456467908807L156.21440781249999,103.27104243398644L156.2195609375,103.27638956434093L156.70395468750002,103.77862316155806L157.11620468750002,104.20540452534333L157.2089609375,104.30134894042276L157.515571875,104.61826686579734L157.7551921875,104.86570300483145L157.896903125,105.01193002047948L158.051496875,105.17137032067403L159.102734375,106.25307727670297L159.21610312500002,106.36946751102805L159.226409375,106.38004329004325L159.247021875,106.40119999945163L159.628353125,106.7922617082484L159.74945156249998,106.91632234440185L159.91950468750002,107.09042861773632L159.9246578125,107.09570362879894L160.3575203125,107.53832547990605L160.49923125,107.68305344455875L160.6564015625,107.84346735519357L160.7440046875,107.93283346057869L161.060921875,108.25583516336046L161.10729999999998,108.30306814815849L161.504090625,108.70675588441081L161.813278125,109.02081479500048L162.081240625,109.29263755744323L162.1662671875,109.37881495985202L162.3311671875,109.54585354258306L162.3569328125,109.57194527210667L162.56048125,109.77792827244848L162.5991296875,109.81701692864299L162.69446250000001,109.91340436222963L163.3566390625,110.58166687209159L163.37725156250002,110.60243722815066L163.52926875,110.7555258792825L163.565340625,110.79183279136195L164.142490625,111.37188310450874L164.1605265625,111.38997989539057L164.1708328125,111.40032386239618L164.18113906250002,111.4106626780238L164.54443437499998,111.77482389095239L164.6294609375,111.85995041225105L164.657803125,111.88831905084662L165.0855125,112.31588857546448L165.12416093750002,112.35447754799388L165.17826875,112.40848459484987L165.2169171875,112.4470529618673L165.52095156250002,112.75017034560442L165.848175,113.07584046218544L166.100678125,113.3267331758514L166.5103515625,113.73303266074508L166.5670359375,113.78917752946727L166.6804046875,113.90140545037575L166.75254843750002,113.97278809519484L166.9792859375,114.19692455157637L167.3142390625,114.52749362862669L167.43018437499998,114.64177179797552L167.9738390625,115.17652089307084L168.2469546875,115.44449042477645L168.254684375,115.45206810180098L168.321675,115.51772241429425L168.4015484375,115.59597184597514L168.86275312499998,116.04701104871928L168.8756359375,116.05959071377292L168.89624843750002,116.07971714758314L169.31365156249998,116.48669146299362L169.45020937500001,116.61959959084633L169.52492968750002,116.69227008016314L169.965521875,117.12006111403461L170.2875921875,117.43197962706908L170.8364,117.96192248649895L170.92142656250002,118.0438474263763L171.0296421875,118.14804692468606L171.1662,118.2794225175865L171.3594421875,118.46511939140036L171.39551406249998,118.49975468132179L171.41355,118.51706846274901L171.619675,118.7147886527935L172.0808796875,119.15613811353687L172.16590625,119.2373444361845L172.2586625,119.32587344264611L172.6271109375,119.67694500409998L172.72244375,119.76762728656176L173.3021703125,120.31767854997888L173.40007968749998,120.41033896158915L173.41553906250002,120.42496372370515L173.8380953125,120.8240255225217L173.87674375,120.86046121905092L173.964346875,120.94300689997617L174.587875,121.52890402714256L175.9663359375,122.81382254215423L176.097740625,122.93555217976682L176.3399375,123.15956242738757L176.63881874999998,123.43536978070624L176.7805296875,123.56589797192719L176.85782656249998,123.63702562353573L176.8681328125,123.64650673472788L177.0587984375,123.82173858415335L177.128365625,123.88560536848381L177.17216718749998,123.92579641956836L177.23658125,123.98487242236733L177.4530125,124.18312835572287L177.81888437499998,124.51741672768257L177.860109375,124.55501663563773L177.87556874999999,124.56911080582067L178.46302500000002,125.10331127915997L178.5841234375,125.21307684138883L178.89588750000001,125.49511221069842L179.39058749999998,125.94097685425076L179.4318125,125.97803844320588L179.509109375,126.0474918969674L179.68173906250001,126.20242216573097L179.7178109375,126.23476509244647L180.07337656250002,126.55296828662976L180.3799875,126.8264910038095L180.58095937500002,127.00533654489554L180.82057968750001,127.21811936418526L180.8360390625,127.23182975670788L180.8927234375,127.28208402469754L181.1246140625,127.48737931607756L181.38484687500002,127.71720546944998L181.5832421875,127.8920174815692L181.6553859375,127.95549791255034L181.89500625,128.1660167012131L182.0882484375,128.33541719075293L182.6035609375,128.78551111563576L183.250278125,129.3469726813026L183.4641328125,129.531793820858L183.64706875,129.68955992320554L183.8969953125,129.90459647036624L183.9279140625,129.93115955097602L184.00005781250002,129.9931022956269L184.064471875,130.04836885440164L184.311821875,130.260229577031L184.688,130.58133557271213L185.87064218749998,131.58207574517002L185.9376328125,131.63835970109795L186.0767671875,131.75511825894938L186.84200625,132.3939251894597L186.9218796875,132.46026978660376L186.9424921875,132.47738266428934L187.76441562500003,133.15625701281243L188.1509,133.47314145423007L188.65590625,133.884929732373L189.011471875,134.17330644798932L189.19183125,134.31909044513014L189.1944078125,134.32117160183844L189.41083906249997,134.49566422852223L189.671071875,134.70483078046237L189.81793593749998,134.82256552444306L190.1013578125,135.04913858261426L190.2353390625,135.15595240525437L190.3177890625,135.22159383930267L190.63470625,135.4732309270883L190.8743265625,135.6627887587063L190.91812812499998,135.69737511053683L190.9980015625,135.7603893418098L191.11137031250001,135.849714236171L191.2453515625,135.95510370279663L191.9822484375,136.53131366365125L192.00801406250002,136.5513576754136L192.0131671875,136.5553628718015L192.4357234375,136.883003390464L192.9561890625,137.2838965041563L193.21384531249998,137.48126382480842L193.2421875,137.5029305206379L193.381321875,137.60916223756504L193.8734453125,137.9831947785686L193.948165625,138.03975175753004L193.99454375000002,138.0748236267362L194.14398437499997,138.18767228869257L194.2083984375,138.23623690470123L194.401640625,138.3816551540047L194.4815140625,138.44163908717456L194.6000359375,138.53051581165056L194.79070156249998,138.67316004390597L194.89891718750002,138.75394009002486L195.0689703125,138.88061118697516L195.29313125,139.0470882695052L195.5791296875,139.25866437850055L195.68476875000002,139.33657897061204L195.9218125,139.51094796422404L195.9450015625,139.52797198063928L196.586565625,139.99650783872931L197.194634375,140.43619855575963L197.4857859375,140.64520799067105L197.84650468750002,140.90278461728013L198.26133125,141.19710731094239L198.333475,141.24808663538425L198.4494203125,141.32988923003433L199.529,142.08389513870935L199.61660312499998,142.14446761681467L199.7170890625,142.21383607283934L200.22724843749998,142.56413235190558L201.16511718750002,143.19987807604485L201.64951093750003,143.5240182333626L201.6520875,143.52573493007804L201.69588906250002,143.5549020322622L201.84790625,143.65594502370806L201.945815625,143.72087170406013L202.0772203125,143.80782567670104L202.291075,143.94887942100178L202.492046875,144.08091954166304L202.7522796875,144.2511481152149L203.069196875,144.45731398947538L203.36550156250001,144.64893237228972L203.51751875,144.7468137054937L203.9890296875,145.04855695915177L203.99160625,145.05019767304185L204.02510156250003,145.07152566576843L204.38839687499998,145.30193134916482L204.517225,145.38323297230528L204.7207734375,145.51125888166717L204.77488125,145.54520259909333L205.1484828125,145.77855100716698L205.254121875,145.84420789534926L205.3236890625,145.88736742800103L205.4009859375,145.9352494864259L205.60453437500001,146.0609714419814L205.9059921875,146.24618666195312L207.305065625,147.09034426115687L207.315371875,147.09646796174349L207.377209375,147.13318183268422L207.3952453125,147.1438799569267L207.4880015625,147.1988335694885L207.61940625,147.27649059270044L207.81522500000003,147.39179388626945L208.4825546875,147.78093541892014L208.69125625,147.90142486228143L209.4023875,148.30763033452678L209.510603125,148.36885188625894L209.80433125,148.53423430096592L210.128978125,148.71567742440385L210.19596875,148.75294184886735L210.49485,148.9184594872466L210.6829390625,149.02200282878476L210.891640625,149.13633315583576L211.035928125,149.21503075740185L211.087459375,149.2430684199615L211.1673328125,149.28645590108937L211.2240171875,149.31719417356072L211.30904375,149.36321980414215L211.37345781250002,149.39802251384828L211.3811875,149.40219513002086L211.7857078125,149.61941843713868L211.9866796875,149.72650721457904L212.0407875,149.75524417670096L212.0433640625,149.75661122363528L212.0485171875,149.75934596142616L212.3113265625,149.89832756393008L212.31905625,149.90240101607634L212.42211874999998,149.95663407964167L212.71584687499998,150.11039627344582L213.1409796875,150.33084112357466L213.5274640625,150.52907709534048L213.72070625,150.6274188329524L213.8778765625,150.70702050135588L214.3158921875,150.92704744594522L214.67403437500002,151.10496187545942L215.78195625,151.64395506209695L215.8618296875,151.68214480283206L215.8875953125,151.6944450056297L215.900478125,151.700591243495L216.0215765625,151.75825383695775L216.15555781249998,151.82180896291976L216.1761703125,151.83156438498992L216.23543125,151.85957693458187L216.4595921875,151.96508681466804L216.9130671875,152.1763519092172L216.931103125,152.18469456587337L217.47218125,152.4328016718908L218.6599765625,152.96275998545462L218.7527328125,153.00329167140882L219.0078125,153.1141132661258L219.36853125000002,153.2692257648858L219.4484046875,153.30331758442918L220.1492296875,153.5984780209372L220.21622031249998,153.62631799936645L220.2625984375,153.6455538887065L220.46872343750002,153.7306662437157L220.62847031249999,153.79620271843743L220.80367656250002,153.8676536190149L221.3988625,154.10702237815423L221.404015625,154.10907230463346L221.501925,154.14794460295235L221.72866249999998,154.23742468257552L221.78019375,154.25765575375118L221.8394546875,154.2808730143559L222.14606562499998,154.4001734552847L222.6948734375,154.61025212309033L222.82627812500002,154.65989273317683L223.19730312500002,154.79867632958923L223.31840156250001,154.8435322754056L223.4008515625,154.8739482647914L223.619859375,154.95425084256277L223.91874062500003,155.06269056888124L223.9367765625,155.0691919298668L223.96511875000002,155.07939841947228L224.3490265625,155.2164727242751L224.671096875,155.32977309768904L224.99574375,155.44241248491454L225.196715625,155.51135144479923L225.34615625,155.56222194638104L225.526515625,155.62317144096306L225.8176671875,155.72053184106773L226.227340625,155.855369159978L226.3381328125,155.89140079529608L226.48242031249998,155.9380484547699L226.9771203125,156.09560141885305L227.0853359375,156.12957346885815L227.273425,156.18819937000518L227.42028906250002,156.23360393757758L228.73433593750002,156.62530264645903L228.90954218750002,156.67554677267327L229.1079375,156.73187612511975L229.144009375,156.74205347724347L229.1929640625,156.7558337353301L229.2444953125,156.77029977061176L229.32694531250002,156.79336136301282L229.61294375,156.87255172607985L230.11022031250002,157.0072673436851L230.28800312500002,157.0545119190836L230.39106562499998,157.08167835484056L230.85227031250002,157.20125407253073L230.91153125,157.2163820598842L231.10735,157.2659864493442L231.40623125000002,157.34056246557594L231.4706453125,157.35645494961938L231.808175,157.43868816727337L231.8262109375,157.44303303264752L231.885471875,157.45727337318095L231.97049843750003,157.47761069152767L231.98080468749998,157.480068381771L232.14828125,157.5197743984216L232.31575781249998,157.55904802128208L232.7949984375,157.66903943923973L232.89548437500002,157.69165221783334L232.936709375,157.70088413111517L233.307734375,157.7827887874417L233.374725,157.79735012321618L233.4700578125,157.81795225458774L233.5628140625,157.8378624915029L233.8771546875,157.90434472702765L234.018865625,157.93381543855213L234.1193515625,157.9545240585656L234.1245046875,157.95558178134962L234.32805312500003,157.99703363219743L234.45688125,158.02293669250213L234.5058359375,158.03271223714256L234.7686453125,158.08455514181043L235.4488578125,158.2137496895637L235.740009375,158.26684767918488L235.8301890625,158.28302598421652L236.05692656250002,158.32314290375217L236.4743296875,158.39489749416026L236.920075,158.4685209079151L237.24987499999997,158.52099517834796L237.687890625,158.58805742683836L238.0949875,158.64769287733617L238.1542484375,158.65615751701336L238.2985359375,158.67653697202223L238.399021875,158.69053704906656L238.7133625,158.73330986616276L238.8190015625,158.74733638426443L238.9401,158.76320017352265L239.027703125,158.77453264167053L239.1848734375,158.79456244689828L239.2312515625,158.80039879718134L239.26732343749998,158.80491482513827L239.42449374999998,158.82435326827073L239.8135546875,158.8708021972405L239.94753593750002,158.88624723581125L240.3082546875,158.9264270585016L240.645784375,158.9621703373876L240.934359375,158.991307738658L241.583653125,159.05207238730947L241.9984796875,159.08741665574945L242.05774062499998,159.09224440244253L242.1221546875,159.0974291436549L242.6220078125,159.13543876726345L242.66065625,159.13821350872405L242.70445781249998,159.14132973020224L242.7250703125,159.1427857188972L242.830709375,159.15014240985494L242.8538984375,159.151733722835L243.21204062500001,159.17523306162985L243.2506890625,159.17764793104362L243.32283281250002,159.18209261442763L243.4207421875,159.18799325632273L243.7453890625,159.20647558558977L243.964396875,159.2180037105191L244.10353125,159.22493395390626L244.304503125,159.23440444541194L244.670375,159.25000734051588L244.82496875,159.25596443125124L244.86619375,159.25748920392203L244.90741875,159.2589871230228L245.0027515625,159.2623481833595L245.15219218750002,159.26732781521304L245.2088765625,159.2691243054656L245.3995421875,159.27479433264403L245.4768390625,159.2769292895593L245.5979375,159.28008416397967L246.08233125,159.29038531455754L246.16220468749998,159.29172763022416L246.24723125,159.2930457063684L246.41213125,159.29527616185803L246.51261718749998,159.2964245173274L246.540959375,159.29671954564918L246.7032828125,159.29816456660006L247.200559375,159.29999811044394" style="fill: none;" fill="none"></path></g></g></g></g></g></g><g transform="translate(72, 177)" clip-path="url(#clip_1)"><clipPath id="clip_1"><rect width="257" height="22"></rect></clipPath><g><g><line x1="0" y1="0" x2="0" y2="5" style="visibility: inherit;" fill="rgb(0, 0, 0)" stroke="rgb(204, 204, 204)" stroke-width="1px"></line><line x1="25.765625" y1="0" x2="25.765625" y2="5" style="visibility: inherit;" fill="rgb(0, 0, 0)" stroke="rgb(204, 204, 204)" stroke-width="1px"></line><line x1="51.53125" y1="0" x2="51.53125" y2="5" style="visibility: inherit;" fill="rgb(0, 0, 0)" stroke="rgb(204, 204, 204)" stroke-width="1px"></line><line x1="77.296875" y1="0" x2="77.296875" y2="5" style="visibility: inherit;" fill="rgb(0, 0, 0)" stroke="rgb(204, 204, 204)" stroke-width="1px"></line><line x1="103.0625" y1="0" x2="103.0625" y2="5" style="visibility: inherit;" fill="rgb(0, 0, 0)" stroke="rgb(204, 204, 204)" stroke-width="1px"></line><line x1="128.828125" y1="0" x2="128.828125" y2="5" style="visibility: inherit;" fill="rgb(0, 0, 0)" stroke="rgb(204, 204, 204)" stroke-width="1px"></line><line x1="154.59375" y1="0" x2="154.59375" y2="5" style="visibility: inherit;" fill="rgb(0, 0, 0)" stroke="rgb(204, 204, 204)" stroke-width="1px"></line><line x1="180.359375" y1="0" x2="180.359375" y2="5" style="visibility: inherit;" fill="rgb(0, 0, 0)" stroke="rgb(204, 204, 204)" stroke-width="1px"></line><line x1="206.125" y1="0" x2="206.125" y2="5" style="visibility: inherit;" fill="rgb(0, 0, 0)" stroke="rgb(204, 204, 204)" stroke-width="1px"></line><line x1="231.890625" y1="0" x2="231.890625" y2="5" style="visibility: inherit;" fill="rgb(0, 0, 0)" stroke="rgb(204, 204, 204)" stroke-width="1px"></line><line x1="257.65625" y1="0" x2="257.65625" y2="5" style="visibility: inherit;" fill="rgb(0, 0, 0)" stroke="rgb(204, 204, 204)" stroke-width="1px"></line></g><g transform="translate(0, 8)"><text x="0" y="0" dx="0em" dy="0.95em" style="text-anchor: middle; visibility: hidden; font-family: Roboto, sans-serif; font-size: 15px; font-weight: 200;" fill="rgb(33, 33, 33)" stroke="none" stroke-width="1px">-10k</text><text x="25.765625" y="0" dx="0em" dy="0.95em" style="text-anchor: middle; visibility: inherit; font-family: Roboto, sans-serif; font-size: 15px; font-weight: 200;" fill="rgb(33, 33, 33)" stroke="none" stroke-width="1px">0</text><text x="51.53125" y="0" dx="0em" dy="0.95em" style="text-anchor: middle; visibility: inherit; font-family: Roboto, sans-serif; font-size: 15px; font-weight: 200;" fill="rgb(33, 33, 33)" stroke="none" stroke-width="1px">10k</text><text x="77.296875" y="0" dx="0em" dy="0.95em" style="text-anchor: middle; visibility: inherit; font-family: Roboto, sans-serif; font-size: 15px; font-weight: 200;" fill="rgb(33, 33, 33)" stroke="none" stroke-width="1px">20k</text><text x="103.0625" y="0" dx="0em" dy="0.95em" style="text-anchor: middle; visibility: inherit; font-family: Roboto, sans-serif; font-size: 15px; font-weight: 200;" fill="rgb(33, 33, 33)" stroke="none" stroke-width="1px">30k</text><text x="128.828125" y="0" dx="0em" dy="0.95em" style="text-anchor: middle; visibility: inherit; font-family: Roboto, sans-serif; font-size: 15px; font-weight: 200;" fill="rgb(33, 33, 33)" stroke="none" stroke-width="1px">40k</text><text x="154.59375" y="0" dx="0em" dy="0.95em" style="text-anchor: middle; visibility: inherit; font-family: Roboto, sans-serif; font-size: 15px; font-weight: 200;" fill="rgb(33, 33, 33)" stroke="none" stroke-width="1px">50k</text><text x="180.359375" y="0" dx="0em" dy="0.95em" style="text-anchor: middle; visibility: inherit; font-family: Roboto, sans-serif; font-size: 15px; font-weight: 200;" fill="rgb(33, 33, 33)" stroke="none" stroke-width="1px">60k</text><text x="206.125" y="0" dx="0em" dy="0.95em" style="text-anchor: middle; visibility: inherit; font-family: Roboto, sans-serif; font-size: 15px; font-weight: 200;" fill="rgb(33, 33, 33)" stroke="none" stroke-width="1px">70k</text><text x="231.890625" y="0" dx="0em" dy="0.95em" style="text-anchor: middle; visibility: inherit; font-family: Roboto, sans-serif; font-size: 15px; font-weight: 200;" fill="rgb(33, 33, 33)" stroke="none" stroke-width="1px">80k</text><text x="257.65625" y="0" dx="0em" dy="0.95em" style="text-anchor: middle; visibility: hidden; font-family: Roboto, sans-serif; font-size: 15px; font-weight: 200;" fill="rgb(33, 33, 33)" stroke="none" stroke-width="1px">90k</text></g><line x1="0" y1="0" x2="257.65625" y2="0" fill="rgb(0, 0, 0)" stroke="rgb(204, 204, 204)" stroke-width="1px"></line></g></g></g></g></svg>