<svg viewBox="0 0 330 200" xmlns="http://www.w3.org/2000/svg"><g><g><g><g><g><line x1="41.171875" y1="177" x2="36.171875" y2="177" style="visibility: inherit;" fill="rgb(0, 0, 0)" stroke="rgb(204, 204, 204)" stroke-width="1px"></line><line x1="41.171875" y1="165.2" x2="36.171875" y2="165.2" style="visibility: inherit;" fill="rgb(0, 0, 0)" stroke="rgb(204, 204, 204)" stroke-width="1px"></line><line x1="41.171875" y1="153.4" x2="36.171875" y2="153.4" style="visibility: inherit;" fill="rgb(0, 0, 0)" stroke="rgb(204, 204, 204)" stroke-width="1px"></line><line x1="41.171875" y1="141.6" x2="36.171875" y2="141.6" style="visibility: inherit;" fill="rgb(0, 0, 0)" stroke="rgb(204, 204, 204)" stroke-width="1px"></line><line x1="41.171875" y1="129.79999999999998" x2="36.171875" y2="129.79999999999998" style="visibility: inherit;" fill="rgb(0, 0, 0)" stroke="rgb(204, 204, 204)" stroke-width="1px"></line><line x1="41.171875" y1="118.00000000000001" x2="36.171875" y2="118.00000000000001" style="visibility: inherit;" fill="rgb(0, 0, 0)" stroke="rgb(204, 204, 204)" stroke-width="1px"></line><line x1="41.171875" y1="106.2" x2="36.171875" y2="106.2" style="visibility: inherit;" fill="rgb(0, 0, 0)" stroke="rgb(204, 204, 204)" stroke-width="1px"></line><line x1="41.171875" y1="94.40000000000002" x2="36.171875" y2="94.40000000000002" style="visibility: inherit;" fill="rgb(0, 0, 0)" stroke="rgb(204, 204, 204)" stroke-width="1px"></line><line x1="41.171875" y1="82.6" x2="36.171875" y2="82.6" style="visibility: inherit;" fill="rgb(0, 0, 0)" stroke="rgb(204, 204, 204)" stroke-width="1px"></line><line x1="41.171875" y1="70.8" x2="36.171875" y2="70.8" style="visibility: inherit;" fill="rgb(0, 0, 0)" stroke="rgb(204, 204, 204)" stroke-width="1px"></line><line x1="41.171875" y1="58.999999999999986" x2="36.171875" y2="58.999999999999986" style="visibility: inherit;" fill="rgb(0, 0, 0)" stroke="rgb(204, 204, 204)" stroke-width="1px"></line><line x1="41.171875" y1="47.20000000000003" x2="36.171875" y2="47.20000000000003" style="visibility: inherit;" fill="rgb(0, 0, 0)" stroke="rgb(204, 204, 204)" stroke-width="1px"></line><line x1="41.171875" y1="35.400000000000034" x2="36.171875" y2="35.400000000000034" style="visibility: inherit;" fill="rgb(0, 0, 0)" stroke="rgb(204, 204, 204)" stroke-width="1px"></line><line x1="41.171875" y1="23.600000000000016" x2="36.171875" y2="23.600000000000016" style="visibility: inherit;" fill="rgb(0, 0, 0)" stroke="rgb(204, 204, 204)" stroke-width="1px"></line><line x1="41.171875" y1="11.800000000000017" x2="36.171875" y2="11.800000000000017" style="visibility: inherit;" fill="rgb(0, 0, 0)" stroke="rgb(204, 204, 204)" stroke-width="1px"></line><line x1="41.171875" y1="0" x2="36.171875" y2="0" style="visibility: inherit;" fill="rgb(0, 0, 0)" stroke="rgb(204, 204, 204)" stroke-width="1px"></line></g><g transform="translate(31.171875, 0)"><text x="0" y="177" dx="0em" dy="0.3em" style="text-anchor: end; visibility: hidden; font-family: Roboto, sans-serif; font-size: 15px; font-weight: 200;" fill="rgb(33, 33, 33)" stroke="none" stroke-width="1px">2.4</text><text x="0" y="165.2" dx="0em" dy="0.3em" style="text-anchor: end; visibility: inherit; font-family: Roboto, sans-serif; font-size: 15px; font-weight: 200;" fill="rgb(33, 33, 33)" stroke="none" stroke-width="1px">2.6</text><text x="0" y="153.4" dx="0em" dy="0.3em" style="text-anchor: end; visibility: hidden; font-family: Roboto, sans-serif; font-size: 15px; font-weight: 200;" fill="rgb(33, 33, 33)" stroke="none" stroke-width="1px">2.8</text><text x="0" y="141.6" dx="0em" dy="0.3em" style="text-anchor: end; visibility: inherit; font-family: Roboto, sans-serif; font-size: 15px; font-weight: 200;" fill="rgb(33, 33, 33)" stroke="none" stroke-width="1px">3</text><text x="0" y="129.79999999999998" dx="0em" dy="0.3em" style="text-anchor: end; visibility: hidden; font-family: Roboto, sans-serif; font-size: 15px; font-weight: 200;" fill="rgb(33, 33, 33)" stroke="none" stroke-width="1px">3.2</text><text x="0" y="118.00000000000001" dx="0em" dy="0.3em" style="text-anchor: end; visibility: inherit; font-family: Roboto, sans-serif; font-size: 15px; font-weight: 200;" fill="rgb(33, 33, 33)" stroke="none" stroke-width="1px">3.4</text><text x="0" y="106.2" dx="0em" dy="0.3em" style="text-anchor: end; visibility: hidden; font-family: Roboto, sans-serif; font-size: 15px; font-weight: 200;" fill="rgb(33, 33, 33)" stroke="none" stroke-width="1px">3.6</text><text x="0" y="94.40000000000002" dx="0em" dy="0.3em" style="text-anchor: end; visibility: inherit; font-family: Roboto, sans-serif; font-size: 15px; font-weight: 200;" fill="rgb(33, 33, 33)" stroke="none" stroke-width="1px">3.8</text><text x="0" y="82.6" dx="0em" dy="0.3em" style="text-anchor: end; visibility: hidden; font-family: Roboto, sans-serif; font-size: 15px; font-weight: 200;" fill="rgb(33, 33, 33)" stroke="none" stroke-width="1px">4</text><text x="0" y="70.8" dx="0em" dy="0.3em" style="text-anchor: end; visibility: inherit; font-family: Roboto, sans-serif; font-size: 15px; font-weight: 200;" fill="rgb(33, 33, 33)" stroke="none" stroke-width="1px">4.2</text><text x="0" y="58.999999999999986" dx="0em" dy="0.3em" style="text-anchor: end; visibility: hidden; font-family: Roboto, sans-serif; font-size: 15px; font-weight: 200;" fill="rgb(33, 33, 33)" stroke="none" stroke-width="1px">4.4</text><text x="0" y="47.20000000000003" dx="0em" dy="0.3em" style="text-anchor: end; visibility: inherit; font-family: Roboto, sans-serif; font-size: 15px; font-weight: 200;" fill="rgb(33, 33, 33)" stroke="none" stroke-width="1px">4.6</text><text x="0" y="35.400000000000034" dx="0em" dy="0.3em" style="text-anchor: end; visibility: hidden; font-family: Roboto, sans-serif; font-size: 15px; font-weight: 200;" fill="rgb(33, 33, 33)" stroke="none" stroke-width="1px">4.8</text><text x="0" y="23.600000000000016" dx="0em" dy="0.3em" style="text-anchor: end; visibility: inherit; font-family: Roboto, sans-serif; font-size: 15px; font-weight: 200;" fill="rgb(33, 33, 33)" stroke="none" stroke-width="1px">5</text><text x="0" y="11.800000000000017" dx="0em" dy="0.3em" style="text-anchor: end; visibility: hidden; font-family: Roboto, sans-serif; font-size: 15px; font-weight: 200;" fill="rgb(33, 33, 33)" stroke="none" stroke-width="1px">5.2</text><text x="0" y="0" dx="0em" dy="0.3em" style="text-anchor: end; visibility: hidden; font-family: Roboto, sans-serif; font-size: 15px; font-weight: 200;" fill="rgb(33, 33, 33)" stroke="none" stroke-width="1px">5.4</text></g><line x1="41.171875" y1="0" x2="41.171875" y2="177" fill="rgb(0, 0, 0)" stroke="rgb(204, 204, 204)" stroke-width="1px"></line></g></g><g transform="translate(41, 0)" clip-path="url(#clip_0)"><clipPath id="clip_0"><rect width="288" height="176"></rect></clipPath><g><g><g><line x1="0" y1="0" x2="0" y2="177" fill="rgb(0, 0, 0)" stroke="rgb(66, 66, 66)" stroke-width="1px" opacity="0.25"></line><line x1="28.8828125" y1="0" x2="28.8828125" y2="177" fill="rgb(0, 0, 0)" stroke="rgb(66, 66, 66)" stroke-width="1px" opacity="0.25"></line><line x1="57.765625" y1="0" x2="57.765625" y2="177" fill="rgb(0, 0, 0)" stroke="rgb(66, 66, 66)" stroke-width="1px" opacity="0.25"></line><line x1="86.6484375" y1="0" x2="86.6484375" y2="177" fill="rgb(0, 0, 0)" stroke="rgb(66, 66, 66)" stroke-width="1px" opacity="0.25"></line><line x1="115.53125" y1="0" x2="115.53125" y2="177" fill="rgb(0, 0, 0)" stroke="rgb(66, 66, 66)" stroke-width="1px" opacity="0.25"></line><line x1="144.4140625" y1="0" x2="144.4140625" y2="177" fill="rgb(0, 0, 0)" stroke="rgb(66, 66, 66)" stroke-width="1px" opacity="0.25"></line><line x1="173.296875" y1="0" x2="173.296875" y2="177" fill="rgb(0, 0, 0)" stroke="rgb(66, 66, 66)" stroke-width="1px" opacity="0.25"></line><line x1="202.1796875" y1="0" x2="202.1796875" y2="177" fill="rgb(0, 0, 0)" stroke="rgb(66, 66, 66)" stroke-width="1px" opacity="0.25"></line><line x1="231.0625" y1="0" x2="231.0625" y2="177" fill="rgb(0, 0, 0)" stroke="rgb(66, 66, 66)" stroke-width="1px" opacity="0.25"></line><line x1="259.9453125" y1="0" x2="259.9453125" y2="177" fill="rgb(0, 0, 0)" stroke="rgb(66, 66, 66)" stroke-width="1px" opacity="0.25"></line><line x1="288.828125" y1="0" x2="288.828125" y2="177" fill="rgb(0, 0, 0)" stroke="rgb(66, 66, 66)" stroke-width="1px" opacity="0.25"></line></g><g><line x1="0" y1="177" x2="288.828125" y2="177" fill="rgb(0, 0, 0)" stroke="rgb(66, 66, 66)" stroke-width="1px" opacity="0.25"></line><line x1="0" y1="165.2" x2="288.828125" y2="165.2" fill="rgb(0, 0, 0)" stroke="rgb(66, 66, 66)" stroke-width="1px" opacity="0.25"></line><line x1="0" y1="153.4" x2="288.828125" y2="153.4" fill="rgb(0, 0, 0)" stroke="rgb(66, 66, 66)" stroke-width="1px" opacity="0.25"></line><line x1="0" y1="141.6" x2="288.828125" y2="141.6" fill="rgb(0, 0, 0)" stroke="rgb(66, 66, 66)" stroke-width="1px" opacity="0.25"></line><line x1="0" y1="129.79999999999998" x2="288.828125" y2="129.79999999999998" fill="rgb(0, 0, 0)" stroke="rgb(66, 66, 66)" stroke-width="1px" opacity="0.25"></line><line x1="0" y1="118.00000000000001" x2="288.828125" y2="118.00000000000001" fill="rgb(0, 0, 0)" stroke="rgb(66, 66, 66)" stroke-width="1px" opacity="0.25"></line><line x1="0" y1="106.2" x2="288.828125" y2="106.2" fill="rgb(0, 0, 0)" stroke="rgb(66, 66, 66)" stroke-width="1px" opacity="0.25"></line><line x1="0" y1="94.40000000000002" x2="288.828125" y2="94.40000000000002" fill="rgb(0, 0, 0)" stroke="rgb(66, 66, 66)" stroke-width="1px" opacity="0.25"></line><line x1="0" y1="82.6" x2="288.828125" y2="82.6" fill="rgb(0, 0, 0)" stroke="rgb(66, 66, 66)" stroke-width="1px" opacity="0.25"></line><line x1="0" y1="70.8" x2="288.828125" y2="70.8" fill="rgb(0, 0, 0)" stroke="rgb(66, 66, 66)" stroke-width="1px" opacity="0.25"></line><line x1="0" y1="58.999999999999986" x2="288.828125" y2="58.999999999999986" fill="rgb(0, 0, 0)" stroke="rgb(66, 66, 66)" stroke-width="1px" opacity="0.25"></line><line x1="0" y1="47.20000000000003" x2="288.828125" y2="47.20000000000003" fill="rgb(0, 0, 0)" stroke="rgb(66, 66, 66)" stroke-width="1px" opacity="0.25"></line><line x1="0" y1="35.400000000000034" x2="288.828125" y2="35.400000000000034" fill="rgb(0, 0, 0)" stroke="rgb(66, 66, 66)" stroke-width="1px" opacity="0.25"></line><line x1="0" y1="23.600000000000016" x2="288.828125" y2="23.600000000000016" fill="rgb(0, 0, 0)" stroke="rgb(66, 66, 66)" stroke-width="1px" opacity="0.25"></line><line x1="0" y1="11.800000000000017" x2="288.828125" y2="11.800000000000017" fill="rgb(0, 0, 0)" stroke="rgb(66, 66, 66)" stroke-width="1px" opacity="0.25"></line><line x1="0" y1="0" x2="288.828125" y2="0" fill="rgb(0, 0, 0)" stroke="rgb(66, 66, 66)" stroke-width="1px" opacity="0.25"></line></g></g></g><g><g><line x1="0" y1="318.59999999999997" x2="288.828125" y2="318.59999999999997" fill="rgb(0, 0, 0)" stroke="rgb(153, 153, 153)" stroke-width="1.5px"></line></g></g><g><g><line x1="28.8828125" y1="0" x2="28.8828125" y2="177" fill="rgb(0, 0, 0)" stroke="rgb(153, 153, 153)" stroke-width="1.5px"></line></g></g><g><g><g><g><g><path stroke="rgb(255, 112, 67)" stroke-width="2px" d="M36.195940625,-1.903290883256674L36.637847656249996,3.120299678637044L36.796703125,8.08098092443496L37.45234296875,11.099252159510266L37.657410937499996,12.585893153649716L38.2119609375,9.703726901672557L38.2581734375,4.849763797519419L38.42858203125,8.140270036950511L39.3326140625,13.341530148101025L39.338390624999995,21.021414976081008L39.4828046875,28.666829469665405L39.68787265625,32.93601328543965L39.898717187500004,38.242183570936184L39.91893515625,33.23843838505331L40.22798125,30.332846356226913L40.308853125,28.027734814163193L40.539915625000006,30.401657367990243L41.002040625,39.7373233850278L41.35152265625,37.97169037195905L41.591249999999995,41.1516976948551L41.856971875,43.87925031399564L41.90607265625,45.198527246808005L42.365309375,44.19086168652477L42.388415625,42.69403994587483L42.711903125000006,48.45338784997121L43.240458593750006,52.209483729269884L43.6303765625,59.79530811933682L43.711248437500004,55.56705746071345L44.32067578125,52.648393198351854L44.36111171875,51.30496002942369L44.90988515625,57.79791746205121L45.28536171875,60.145736408627194L45.41244609375,66.28742090248836L45.65795,72.32369674315316L45.81969375,67.08105795067705L45.839911718749995,78.39927930165624L45.94388984375,80.74298673229994L46.1836171875,79.2084501967286L46.79015625,76.79980942162607L46.84503359375,76.85339204640826L47.04721328125,73.4387059126594L47.8703734375,82.66418803657879L47.95413359375,84.64532959059352L48.23140859375,86.73121091124698L48.26606796875,85.03284661052993L48.6790921875,94.86693119095783L49.0025796875,103.40995710782424L49.4300453125,93.58963789994847L49.548464843750004,94.02219307932457L50.2041046875,92.00228559323072L50.429390625,90.48355771152927L50.43805546875,87.32131199508159L50.481379687499995,85.8337443045929L50.576692968749995,96.1106330878827L51.376746875,99.0516442875441L51.4056296875,104.26856710078572L51.50671953125,101.51052556015405L51.963067968749996,103.02722296701283L52.179689062499996,100.79447140685566L52.508953125,92.29444449419886L52.62737265625,100.22677221104567L53.03750859375,105.96182363393942L53.07794453125,102.44171356894395L53.4274265625,94.11884669147628L53.456309375,88.45442649175345L53.72491953125,93.93943316250812L54.5249734375,99.8228392416821L54.6693875,105.8790139469258L54.689605468749996,104.67206477837274L54.85712578125,102.04606670210666L55.628296875,109.31888113301937L56.229059375,106.79942026306361L56.4774515625,101.18682916742068L56.514999218750006,104.31189316619336L56.841375,94.03125233953538L56.8933640625,102.87481223288381L57.31216484375,113.52889223780157L57.49701484375,116.37431589535429L58.562790625,107.36660751206608L58.58300859375,98.8095570975717L58.91804921875,110.21288883770562L59.14911171875,110.16624671509896L59.2733078125,110.19407809192559L59.51881171875,104.87367545851838L59.95205390625,111.47387438827022L59.954942187499995,113.04300425179757L60.01848437500001,109.71634833888984L60.2206640625,101.15795969531999L60.37085468750001,109.09734667519368L60.379519531250004,115.61175925481105L60.489274218750005,116.15610321371427L60.555704687500004,114.09048222546977L60.5788109375,110.38741782572987L60.711671875,113.04108482400845L60.948510937500004,122.58728711724443L61.003388281250004,121.41244692397214L61.86409609375,123.8103971552378L62.017175,123.70628141829526L62.074940624999996,121.07311199825497L62.16447734375,123.75926793290074L62.190471875,127.26980792923507L62.288673437499995,122.60261260177933L62.63237890625,118.92163019839668L62.84611171875,115.03661692061272L63.45265078125,111.14168492745307L63.4670921875,108.04514101857512L63.9407703125,111.850618470398L64.015865625,109.30050936501468L64.3797890625,109.69802015758302L65.48022421875,118.87933306775535L66.07521015625,119.86737725306777L66.25428359375,127.3603739951207L66.5286703125,119.12671790445768L66.60665390625,113.05302424624517L66.6673078125,115.4237442123589L66.7019671875,117.67740540192705L66.74529140624999,121.43576676181661L67.5915578125,112.2621724899513L68.0074703125,119.08137579774272L68.15477265625,121.55364099988589L68.221203125,121.11268733888414L68.7699765625,127.94543855994667L68.983709375,127.42376322752075L69.5498125,121.53996373180054L69.95706015625001,124.41189322092237L70.1679046875,121.74803662072482L70.243,117.58066567284382L70.29498906250001,124.41325406374048L70.46539765625,124.03033620441862L70.60981171875,125.69631474450175L71.14414375,120.0183961846527L71.16147343749999,121.08880435813049L71.24812187500001,118.1947549926554L71.30299921875,130.00837992354124L71.56872109375,124.39812625124391L71.65536953125,126.10657970353566L71.84021953125,122.27527121689678L71.89509687500001,125.68216315738415L72.46697656250001,121.86466664214167L72.726921875,121.70437293374083L73.142834375,119.21580617143836L73.57318828125,108.24955086060835L73.57896484374999,122.82931028931425L73.67138984375,124.3732957454269L74.34435937500001,123.84834157536892L74.41367812499999,127.08202515548746L75.36969921875,116.44601812902857L75.430353125,125.29993437137466L75.81449453125,133.3474462795631L76.02245078125,128.91298898508404L76.26795468750001,128.10427955895815L77.10844453125,129.04510180062147L77.43193203125,134.24090293828306L77.57056953124999,125.49391876568592L77.69187734375001,128.39955621546622L78.1742203125,132.153002047456L78.26375703125,130.89583397383493L78.67389296875001,135.5262813024223L78.826971875,118.4642399843037L78.89917890625,121.73952291819452L78.96272109375,116.42470477111935L79.55193046875,126.49432771496652L79.59236640625,126.20147995646403L79.6761265625,133.36020857629543L79.6992328125,139.09490764699797L79.78299296875,128.19647461749565L80.73612578125,133.13184393034848L80.9238640625,129.7873820006041L81.05961328125001,127.77612472648553L82.17448984375,130.87543925926167L82.5817375,131.9748693447416L83.6388484375,129.28998470193773L84.095196875,124.68993162087575L84.24827578125,130.4291832767247L84.54288046875001,130.6541897870492L85.29383359375001,135.26972338303275L85.60865625,135.78139507260528L85.6490921875,134.29717875651482L85.87148984375001,134.0501271696804L86.2036421875,135.10152657341467L86.46936406249999,130.73395703978247L86.63399609375,127.43946865288558L86.74952734375,131.79175358705604L86.80151640625,137.18200037534763L86.8275109375,134.48004767927964L87.0470203125,135.0682757618036L87.353178125,139.70388015282194L87.376284375,134.4009943400147L87.58135234375,132.86755329575075L87.91928125,136.77443044546806L88.04925390625,132.2365269158099L88.20522109375,130.29960671268785L88.208109375,138.16348522664836L88.2716515625,139.07362008191188L88.31786406249999,136.7015142351212L88.89840859375,135.6124191611899L88.90707343749999,130.87199045240246L89.04859921875,127.30003490101912L89.11791796874999,128.12596977026237L89.76778125000001,134.4088058154045L89.95263125,129.6026392173921L90.14036953124999,131.5800518531892L90.2068,135.18925715561468L90.45808046875001,138.02579550430633L90.47252187500001,135.6282218628255L90.66603671875001,133.90273958284422L91.04728984375001,132.02639682435253L91.50363828124999,141.45279644574677L91.90799765625,140.2171141925213L91.98598125,136.9991335667823L92.4423296875,140.26091416106544L93.13262890625,141.06566127434925L93.268378125,136.0125837725136L93.3781328125,135.90274454603988L93.4590046875,130.71214103609563L93.78826875,125.49831890052702L94.63453515625,120.40517824522345L94.85115625,138.58195891399197L95.1111015625,136.50268872272378L95.7118640625,134.1786642437661L95.740746875,142.56631447109487L95.83894843750001,144.37528486033025L95.86783125,139.43274455892885L95.94292656249999,141.34413831250575L96.07289921875,134.34267200956768L96.1393296875,136.31555826860682L96.35595078125,140.60142415641553L96.54657734375,138.9599400536943L96.872953125,133.55374631981425L97.24842968749999,134.89483900130017L97.28020078125,140.27363534963266L97.33796640624999,145.96222488043392L98.0224890625,141.45852946256213L98.42973671875,137.37809108146794L98.5423796875,141.29551446943742L98.62613984375,140.1294520074681L99.01605781250001,141.42790432063077L99.021834375,136.72573562674125L99.13158906250001,129.63268262512923L99.19801953125,133.43052952747013L99.81033515624999,139.74881019389906L99.99518515625,139.09451692459749L100.27823671875,142.92287258838277L100.30134296875,145.50577189287338L100.80390390625,146.9645956049013L100.8992171875,134.16147949276254L101.11295,131.48988566623856L101.22559296875001,135.05403761998852L101.47398515625,142.52852742276215L101.75703671875,145.40562862635628L101.82057890625,143.9481402449666L102.048753125,139.5386076958691L102.21916171875,142.08946333120554L103.0712046875,128.9734682094472L103.43512812499999,126.97870863028868L103.53621796875001,126.9314114269525L103.74995078124999,128.60600360971154L104.16875156249999,129.07879023040212L104.24095859375001,129.3773053806119L104.42580859374999,132.0487066841777L104.46624453125,136.91508849720094L104.85327421875,139.73211816942654L105.14210234375001,144.87273899552798L105.3356171875,145.97568792246327L106.28008515625001,149.5681690248403L106.28297343749999,144.80307386592347L106.37251015625,140.14727766916343L107.2765421875,141.94869188073392L107.293871875,145.01866127254436L107.31120156249999,146.13693389655273L107.32275468750001,146.2984692559309L107.32564296874999,146.29510618124408L107.6577953125,149.50565728708506L108.32498828125,136.65590829589604L108.60803984374999,140.4014023383775L108.63692265625001,137.59130511762612L108.657140625,135.18714194585033L108.7091296875,132.09889123135298L109.24923828124999,128.7001346808284L109.512071875,132.0477951944834L109.6102734375,135.80858419066462L109.66226250000001,145.71323845461484L110.47964609375,138.45007598445102L110.68182578125,139.4642947819548L111.0197546875,147.95496984402638L111.05730234375001,148.33458406019392L111.32302421874999,138.21370366029848L111.406784375,127.55791946180409L111.51942734375,124.48631612257806L112.55632031249999,128.91549137947945L112.63141562499999,138.78984185527557L112.74983515625,143.1366752318787L112.8220421875,139.51710001064822L113.22351328125,149.86093333860327L113.40258671874999,137.68358627498205L114.00334921875,132.60264753067526L114.04956171875,140.2025845358612L114.26329453125001,138.83125678001892L114.40770859375,142.36810062944326L114.80051484375,140.00529406678336L115.03735390624999,139.61967237360275L115.53125,140.80078695992827L115.54569140625,140.17316458928704L115.62078671875,138.50851505224776L115.796971875,141.847658107429L116.0338109375,144.45957918986633L116.23310234375,136.16440798297498L116.35152187499999,134.10178966435774L116.47571796875,135.28053947396867L116.85697109375,130.76963025634166L116.8887421875,137.76057503643435L117.29887812499999,144.0269749428201L117.57037656249999,136.41038561495353L117.61081250000001,139.14043402094967L117.66280156250001,139.6843104232509L118.72280078125,147.5980433767533L119.5921734375,146.09202747258516L119.69903984375,139.61305477090463L120.42977499999999,143.08807864348762L120.7532625,143.29162171459598L120.94100078125,141.48314414844754L120.96121875,144.47493501201774L120.984325,148.38859463987055L121.1229625,143.5189379194814L121.14895703124999,143.99684491034972L121.319365625,139.48198988840954L121.35691328125,137.67660890344368L121.8103734375,137.62555509044878L121.90568671875,130.22017600318281L122.56421484375001,136.49268761027153L122.8732609375,140.19281566827476L123.20541328125,146.2734241192876L123.3469390625,140.64572584303252L123.5086828125,136.07903062148114L123.8899359375,137.1777023389531L123.9130421875,140.26349485841948L124.2942953125,138.83357588844038L124.6351125,140.56753143546902L124.71309609375,138.14818396137906L124.71887265625001,137.86599619607182L124.97881796875,135.11606935155422L125.18099765625,140.07789932425038L125.27919921875001,146.66843333920966L125.36007109375001,150.61451066423137L126.01859921875,147.81006919913696L126.2987625,139.24098006470922L126.32475703124999,140.06929739704088L126.35941640624999,139.84773282283754L126.41429375,138.9877822069777L126.46339453125,142.99893605163413L126.61936171875,142.25482908398342L126.65402109375,140.87001498884217L126.72622812499999,138.4963531896249L126.83309453125001,135.2590658810601L127.13347578125,145.45619039457233L127.18835312499999,144.9312709040713L127.49162265625,144.70802844210098L128.12993281250002,149.2191648664691L128.19058671875,152.91884293691027L128.3494421875,157.04900839886488L128.60072265624999,147.3036213479127L128.6036109375,133.75916049490485L128.81445546875,137.42363321787184L129.34589921875,139.14334022048752L130.30480859375,128.89577284719726L130.48388203125,135.09342535535205L130.7062796875,139.3964318191988L130.93445390625,137.4889283893098L130.9951078125,142.24895018086372L131.0182140625,142.31527295199356L131.06153828125,143.6577045731981L131.36769609375,148.16710470040078L131.62764140625,149.18772900294923L132.19952109375,151.16978341693678L132.2197390625,139.80242474529146L132.410365625,142.0078207376778L132.42480703125,141.32836591977954L132.72518828124998,145.29881717073368L132.7742890625,144.84297442261843L132.96780390625,147.20103253259938L133.5714546875,150.86855313619782L133.6176671875,148.92128069305903L133.65521484375,143.69011214676192L133.8314,148.06266103805714L134.50436953125,141.83996024740708L134.67766640624998,150.10523160346133L134.76431484375001,147.43617137937417L134.8191921875,146.77052502077024L135.07624921874998,148.43076035166501L135.22643984375,145.98263723364303L135.3159765625,145.13054297632476L135.48060859375,145.7530846397072L135.90229765625,145.43071329832017L136.23733828125,134.43508063936198L136.3326515625,135.58794985761622L137.06338671875,149.27510986894595L137.16158828125,144.96497974735632L137.955865625,149.96237011159738L138.279353125,149.37587305191326L139.19205,150.8889036338518L139.35090546875,155.03053727155864L139.3942296875,149.58059542659484L139.90545546875,147.86100530435778L139.95166796875,146.97250083810172L139.9834390625,149.7107321389084L140.312703125,155.6902589206436L140.48888828125,156.12231426504485L140.4917765625,144.56404850165387L140.659296875,144.33726012516226L140.7170625,143.1843787801755L141.06365625,145.8900496847923L141.47090390625002,139.810186179131L141.54022265625,141.70934029558285L141.93302890625,140.55248962962023L142.21030390625,143.49449640228386L142.38071250000002,146.0239947087409L142.41248359375,145.67596588652384L143.23275546875,142.1903286011282L143.55335468750002,152.3476738376178L143.6342265625,140.23450394170035L143.78152890625,144.90255943594306L144.0616921875,145.36896261011321L144.15122890625,153.1415202548191L144.1656703125,148.12690905154258L144.471828125,152.77853308809105L145.26899375,158.8135014599103L145.82354375,157.77665052804582L145.858203125,157.04848833318493L146.28278046875,153.11905542514288L146.32899296875001,148.49083961189726L146.34054609375,150.77921488011444L146.435859375,154.56482472732404L146.4762953125,148.96147406765664L146.493625,150.61533243101144L146.70446953125,149.72363293791594L147.41787499999998,148.1965060414361L147.67204375,157.52664208540244L148.007084375,157.19607829170778L148.08506796875,155.79993270347924L148.28724765625,157.07951944417007L148.48365078125002,153.5093499645367L148.72048984375,155.59090884117933L148.85912734375,146.1643020986834L148.90533984375,147.68417614217515L149.81803671875,152.99892020175406L150.22817265625,155.20646828621355L150.5776546875,162.2246893442257L150.7162921875,156.81056952694559L150.895365625,143.76088513505164L151.16975234375002,149.3373674152595L151.4903515625,151.72817312707318L151.542340625,154.1077472295154L152.1488796875,149.29597228561573L152.43193125,151.50030861016947L152.974928125,150.4476474768927L153.02402890625,153.31971595805942L153.136671875,148.74716523004804L153.8818484375,152.07970481582424L154.4479515625,152.99626738946404L154.5750359375,148.38715408754805L154.67612578125,145.16106370039262L154.83209296875,151.57236753313228L154.92451796875,154.26693549638082L155.13247421875,155.5474090891188L155.21045781249998,158.25371824247273L155.22201093750002,152.54976783360618L155.40397265625,148.91623959878433L155.89786875000001,154.33204293453304L155.909421875,155.07523917319543L155.94696953125,154.40406993366582L156.17803203125,153.31740060888114L156.18958515625,144.10615199710358L156.29356328125,150.5662423152055L156.54484375,155.2544906627134L156.56506171875,148.4118737418053L156.69214609375,150.594105522549L156.845225,148.83367511315097L157.65683203125,152.21884676863522L157.83012890625,148.77918092876536L158.07274453125,151.7549610070578L158.2835890625,150.26790221763798L158.324025,155.59738916536065L158.751490625,158.6058448837989L159.15585,150.44778688709695L159.7508359375,149.95442131972766L159.77683046874998,150.07580586800847L159.929909375,148.62402054625676L160.31982734374998,151.64108545397474L160.42380546875,150.92421429881307L160.7559578125,149.17253112750564L161.27873671875003,148.99239601109812L161.3798265625,153.0929466474914L161.83906328125,157.69289466314692L162.00369531249999,153.7087773023437L162.23186953125,149.44128070940917L162.33584765625002,144.59639068287817L162.66222343750002,147.45082093621616L162.70843593749998,149.70111946907835L162.93661015625,155.480642384572L163.18500234375,158.40184810774517L163.75399375,153.19860716710681L165.2039109375,150.87843615085L165.32810703125,150.84809101027318L165.50140390625,143.89416996718688L165.55916953125,148.27415479708458L165.63426484375,149.26457407408208L165.89421015625,150.5526457353428L166.04440078125,160.22825572276088L166.21769765624998,157.42097751965505L166.32167578124998,161.13303412837016L166.4747546875,155.95171058322327L166.4863078125,160.28752972212632L166.52385546875,162.2344359393549L166.56429140625002,161.33210828755094L166.63361015625003,155.73061724456426L166.66826953125,154.58097349615258L166.7809125,150.38718448526478L166.8213484375,148.22940364388714L167.1794953125,149.58769152944143L167.196825,154.4654018210462L167.31524453125,152.15555968088455L167.36723359375,158.0829466140422L167.4336640625,161.38109172559695L167.73982187500002,158.04506895289967L168.04309140625003,158.28081395474763L168.17595234375,159.44400949864203L169.00488906249998,164.70992323153388L169.0279953125,158.59571506257757L169.39769531250002,153.4772513870949L169.958021875,157.9787933829161L170.3566046875,158.34466952340202L171.19420625,153.59945044908758L171.3501734375,153.14320721861029L171.42238046875,158.9503758730668L171.78630390625,159.5653467549192L172.0202546875,152.6545664437596L172.19643984375,148.72345374870204L172.2513171875,153.20549925117436L173.31420468750002,156.55344180076565L173.45861875,154.60141955738808L173.72722890625,157.07076845959156L173.77344140625002,158.21361237046318L173.86008984375,162.39696895883796L174.070934375,161.35280143145513L174.4001984375,155.98001194789285L174.65436718750001,159.60313944336337L175.11360390625,154.41872154901364L175.11938046875,159.33721719759666L175.66237734375,156.63277125941494L176.12450234375,153.7873139321016L176.22848046874998,153.98854135150947L176.5721859375,149.3094847504809L176.84079609375,153.55698281195848L176.99965156250002,155.69376633207256L177.1729484375,148.45985295796547L178.35136718750002,153.408706574584L178.47845156250003,151.15714195546207L178.4900046875,153.11097088799892L178.51311093750002,151.5362000331045L178.94057656249998,142.32838013796575L179.07632578124998,142.70715423481803L179.26695234375,149.75597859893523L179.27272890625,155.04369645043778L179.75796015625,153.71935069039205L179.916815625,143.56009346172058L180.09300078125,147.44606416419055L180.19120234375,147.9256703817541L180.5464609375,154.06292904637422L180.59844999999999,149.51867520583968L181.0432453125,146.3331941257316L181.38983906250002,152.33230644049632L181.69022031249997,147.23766095627778L181.78553359375,155.04696882718463L181.97038359375,153.44619767280614L181.99926640625,158.17750849015826L182.227440625,151.98234760813307L182.27076484375002,155.08316489727727L182.37763125,161.3126022998776L183.11991953125,162.28452720786845L183.14302578125,161.1032007989032L183.313434375,160.00093132834095L183.35387031250002,152.5701409159926L184.0008453125,149.78267201297447L184.02106328124998,150.02977704353907L184.03261640625,144.4039088591801L184.04416953125002,150.05524570613306L184.4514171875,151.80831301968811L184.54673046875,150.50680076576185L184.57850156249998,150.60821849046297L185.05795625,144.1013736983427L185.10128046875002,141.79146237971122L185.161934375,152.80133582473835L185.20525859375,152.45017580819749L185.54607578125,153.24843327422514L185.9128875,155.8219975866054L186.1959390625,153.03586130602207L186.65517578125,153.14817983903316L186.71871796874998,155.1870296800007L186.84580234375,156.44806646370108L186.92667421875,157.1541834680034L187.18084296875,159.6560673622962L187.55631953125,162.1645194380686L187.6862921875,160.97469303185972L188.29571953125,161.2245121692135L188.60187734374998,163.00042932835305L188.61054218750002,156.01834959988048L188.68563749999998,150.03005009653717L188.77517421875,153.3991228351745L189.29217656249998,154.49607507286984L189.30661796874998,156.85481432854246L189.32972421875002,161.40222722398704L189.79762578125,163.2245940477101L189.9507046875,156.16481074991512L190.03446484375002,152.3050729733866L190.5283609375,150.77261024368772L190.88939609375,156.70468270810227L191.50459999999998,150.53054892082085L191.59991328125,150.46354747688216L191.72122109375,149.90232181117202L191.8743,152.47987388351717L192.09092109375,152.29423778759931L192.13135703125,154.31029763166603L192.151575,155.49944117513L192.38263750000002,155.68636022357165L192.89963984374998,155.42940154521477L192.994953125,160.3096012428332L193.09893125000002,160.80340051620772L193.51195546875,163.70963739377004L193.61882187499998,162.2380253638133L194.26868515625,154.76214394601013L194.37843984375,155.12014994640248L194.39576953125,158.61769280445037L194.86944765625,156.4029305935589L194.912771875,152.38250098232552L195.0109734375,152.6917775631197L195.7099375,152.13827366830392L197.25516796875,150.4963818645566L197.4024703125,153.36018744087755L197.67396875,152.99733122215594L198.00900937499998,155.53140086189464L198.16786484375,157.57021165284846L198.25451328124998,158.30886668439706L198.26606640625,157.97123427913192L198.47979921875,158.72841426208973L198.5577828125,159.84409891888717L198.60688359374998,160.34030929640065L198.67909062500001,161.1317090382286L198.92170625,166.93703336895155L199.3318421875,162.30701900589852L199.3780546875,158.04473762195343L199.395384375,154.09964420128483L200.0539125,155.7257293232001L200.18966171875,149.29117989586098L200.53914375000002,158.41031407383858L201.09369375,158.42621777932513L201.13990625,157.7259657673876L201.2265546875,158.45403958158735L201.42006953125002,159.9122441720786L201.46050546875,162.55040478419198L201.85908828125,157.58886641330085L202.20279375,149.54928880015945L202.4280796875,156.44640299963913L202.69668984375,155.36977588944413L202.71401953125,151.9967286241816L202.77756171874998,155.87670389966766L203.03750703125,155.43057340715288L203.32922343750002,154.87020092447975L203.55162109375,151.52407018923984L203.63249296875,155.54669999470846L203.90110312500002,152.83059829348645L204.11772421875,154.1099919335504L204.69538046875,154.74236276724696L205.42033906249998,159.63802748548247L205.66006640625,153.63650228993447L205.865134375,150.54340053091258L206.14529765625,152.83651713663227L206.17995703124998,157.4892070921295L206.26082890625003,156.8002421660443L206.3330359375,160.21952588815807L206.6103109375,159.92126578008725L207.032,156.94534411618469L208.35772109375,152.12416995161388L208.43281640625,151.2450173556424L208.58878359375,155.23278334734542L209.446603125,150.90463434098783L209.53613984375,151.788543277017L209.55924609375,152.49546506227955L210.4806078125,155.52533855808915L210.91385,161.5251957724878L211.47995312499998,156.5978113645547L211.8785359375,162.09397404636343L212.080715625,164.93983249452947L212.08360390625,160.76648952357317L212.32621953125,153.1462913047811L212.6179359375,152.538043566438L212.78256796875,160.92702501529004L213.10027890625,157.91641869493455L213.25046953125002,161.0009269997366L213.34289453125,158.36340499668646L213.698153125,162.84781846493084L213.96676328125,158.40063104325293L214.0158640625,151.4434448223934L214.10540078125,157.35048103222996L214.23248515625,158.35005992823693L214.38267578125,161.34494924887332L215.20872421875,159.2694226666946L215.23760703125,160.39220688370816L215.24338359375,161.23406445996733L215.71706171875002,159.2096381808327L216.30049453125,160.9299873152379L216.58932265624998,162.1669291185739L216.62109375,160.62705408140437L216.77706093749998,158.12014747264632L217.32872265625,160.0986248910585L217.4124828125,158.07633271814342L217.46447187500002,159.41320441604228L217.63199218749997,158.2140529444252L217.70419921875,159.98729878249372L217.92082031249998,158.15008022774822L218.01035703124998,161.87955794805032L218.14321796875,161.61050305648885L218.35695078125,161.75533023049977L218.47825859375,163.48627446276276L218.66888515625,161.27388122428852L218.92016562499998,162.29734469145174L219.24076484375001,165.89871076994916L219.359184375,157.4465682664739L219.62490624999998,161.49330396647613L219.65090078125,168.542238197299L220.3700828125,167.0352225456072L221.0517171875,162.07118458708723L221.37809296875,156.47874766326308L221.78245234375,159.28929236016486L222.24746562500002,157.76749530364165L222.3283375,152.79696296053584L222.45831015624998,155.44966638563548L223.6685,153.41231715010687L223.7667015625,155.53100677565982L223.87934453124998,157.35311738631873L224.45122421874999,162.42428788174243L225.50255859375002,161.2699381770435L226.04555546875002,158.7504133761968L226.04844375,161.56563674336945L226.09754453125,153.23712244824335L226.267953125,159.64059847352362L226.3777078125,147.66390776728068L226.52501015625,156.26055201586766L226.76473750000002,159.62291354594637L226.9900234375,157.80495010052925L227.28173984375,156.829912809341L227.63699843749998,156.64583066213658L227.96915078125002,157.47587505286054L228.139559375,157.57843621793458L228.66811484375,159.65373863353173L228.671003125,158.06596624835635L228.70855078125,157.39409657945814L229.1157984375,158.22680718320956L229.2602125,160.42697895180197L229.48838671875,154.63256909257777L229.549040625,160.43041105393533L229.96784140625,164.47140708997227L230.0862609375,160.89360479017722L230.16424453125,162.11704498470203L230.25089296874998,156.88837163651215L230.4790671875,157.92426685931818L230.81699609375002,156.31755491997322L232.3853328125,155.69295713487577L232.3968859375,156.36324708213397L232.4662046875,157.3924243387579L232.48642265625,160.15387524229283L232.59040078125,163.67404286540742L232.737703125,163.6301746778321L232.95721250000003,160.81019102648688L233.70527734375,156.1025262446153L233.939228125,154.2234287983744L234.73639375,155.54362610379272L234.85770156249998,161.7087666618789L235.186965625,160.80076042818814L235.5508890625,164.85245222096316L235.625984375,161.72860212710304L235.961025,159.1018757461715L236.17186953125,153.17057697053002L236.4058203125,152.2272410301879L236.5675640625,155.78449195316523L236.6253296875,159.9539558416074L236.71486640625,155.97519165071637L236.77840859375002,157.86847379322523L236.873721875,162.7295911843519L236.94592890625,155.46340839713457L236.95459375000002,158.6958997669795L237.40805390625,159.06466790813082L237.63333984375,162.0135455797784L237.69399375,167.0119329280062L237.69688203125,166.25705927767774L237.70265859375,164.57516723011983L237.99726328125,163.63795220574767L238.005928125,166.7620541222157L238.12145937499997,169.18424991412533L238.4507234375,169.2477102878307L238.92728984375,162.06987521902408L239.36053203125,168.91823303851896L239.577153125,171.4567629966343L239.75333828125,154.11548487622764L240.24434609375,165.52422508406175L240.6458171875,157.77506937508306L241.887778125,164.03133356764627L241.97731484375,159.66744929906554L242.00619765625,154.83940394375819L242.0206390625,155.1351090792066L242.15638828125,155.58176872511183L242.30657890625,158.86493270265746L242.32968515625,163.00451769273096L242.396115625,162.58956711435684L242.64739609375002,166.54244269933918L243.15573359375,162.24465224985255L243.17595156250002,166.15790455486757L243.782490625,160.09091634360783L245.11398828125002,159.45404182200332L245.21796640625,158.91869702771126L245.50390625,152.43815654060137L245.908265625,154.96919717753468L245.99780234374998,161.90618913629376L246.78341484375,167.40493426119517L246.85851015625,162.73812126991294L246.91049921875,165.99713343547072L247.14156171875,165.1149730239289L247.32063515625,165.49760380947453L247.51703828125,165.8759404061071L248.18423125,169.46761168705413L248.1900078125,166.6298769716441L248.29976249999999,169.68045155072326L248.55393125,165.33664764323305L248.61169687499998,159.3368873820214L248.67812734375002,156.52262244615008L249.02183281249998,159.10421729322107L249.63703671875,159.66532639644046L249.7843390625,160.30333425033987L250.2002515625,163.51277966397348L250.33600078125,161.63490229545442L250.42842578124998,158.3964159256125L250.6739296875,163.08325059449103L251.00897031250003,164.44903620264188L251.02918828125,165.5802818213776L251.060959375,165.41507243602723L251.49131328125,167.238672863777L251.85234843749998,169.61293060501546L252.21627187500002,163.97494033169826L252.4415578125,155.85734125132612L252.60907812500002,157.9172460708335L252.8112578125,160.56066319425793L253.13763359375002,156.94703237700398L253.59687031250002,161.1831618242737L253.72106640624997,164.58942927916505L253.88281015624997,166.77170169591702L254.43736015625,160.82691494607803L254.55866796875,158.63645223607944L254.7695125,166.99541393655733L254.93414453125,164.96477159344073L256.40716796875,163.7839161329443L256.60357109375,161.64123003560152L256.82596875,163.44164895580917L256.8664046875,162.16457523087684L256.92128203125003,166.46315748441233L256.97904765625003,162.56539223997603L257.07147265625,159.2583085823584L257.392071875,159.82292122653297L257.94951015625,162.28657017595276L258.1488015625,168.6730518391532L258.2643328125,164.29053043668284L258.78133515625,159.83412512388713L258.847765625,162.42692612795167L259.067275,163.14891866200048L259.402315625,160.65070472808407L259.47452265625,166.14597402245835L259.8528875,172.09555745500944L259.87310546875,165.99445952641142L259.9395359375,164.80697915594084L260.03484921875,167.17376387143315L260.04640234375,162.11507455363383L260.234140625,167.7633169070155L260.42187890624996,166.17421046586455L260.95909921875,166.76988371665252L261.07174218750004,167.0081371239124L261.1179546875,160.90546481676688L261.5338671875,154.98948769132966L261.6089625,156.32107874608442L261.71582890625,161.6352796748662L261.81980703125,163.4326996347537L262.17217734375,160.7851032365102L262.3310328125,163.16733740501036L262.44367578124996,162.85205872733852L262.44945234375,162.8448076622454L262.6776265625,164.65734526018903L262.822040625,157.5136280232704L262.87691796875,165.3233665951512L263.17152265625003,155.25822506954802L263.93402890625,156.35581656104642L264.2604046875,154.61387850169132L264.36149453125,157.82744169070597L264.61566328125,159.71391967674657L265.08356484375,160.3132807382379L265.5832375,164.64402698328695L265.95293749999996,160.69495094567895L266.4439453125,168.51722619027115L266.90029375,160.44193613225352L266.96672421875,155.7591592913516L267.12846796875,159.85037800584124L267.24111093749997,162.779185028755L267.59348124999997,166.61840779535967L267.71190078125,164.19609983773827L267.84765,163.3680528546083L267.94585156249997,159.24612452892708L268.12203671875,162.8360061687723L268.17402578125,162.47159141793819L268.21446171875,167.1599125915466L268.39064687499996,165.9556256707727L268.82677734375,155.55873386956569L268.97696796875,161.66447352944206L269.38132734375,159.12722762810225L269.75969218750004,160.6768045829954L270.08317968750004,157.36225153489247L270.8110265625,160.14317626883587L271.27603984375,160.32876373249292L271.3424703125,163.87013940404648L271.41467734375,157.7764131712365L271.97500390625,165.39945084616232L272.018328125,166.79061592319422L272.06742890625,164.22761704384575L272.09053515625004,165.02851286088998L272.2089546875,165.76523302170978L272.23494921875,160.52914755686132L272.6364203125,159.84346265521054L272.67974453125,169.3652998526478L272.76061640625,164.1611267423382L272.87037109375,170.3839731416554L273.23429453125,165.35524335154597L273.4797984375,164.18919957309188L273.63576562500003,162.21435977834L273.8610515625,159.63292555938682L274.2711875,159.06527897912574L274.444484375,161.9514223313231L274.49069687499997,162.36267320012442L274.536909375,164.7513764267885L274.64377578125,164.50104552541512L274.81129609375,166.32408373614751L274.87483828125,166.04204311049344L275.08857109375,163.96659572408416L275.17521953125,163.9738878124107L275.31096875000003,164.26467787940197L275.853965625,159.18549972843465L275.94350234374997,160.35506456179226L276.038815625,163.32889561344862L276.223665625,164.8957512550931L276.33630859375,169.89949684222825L276.3680796875,168.49456951189214L276.55004140625,154.4239053462039L277.1074796875,158.88590566957538" style="fill: none;" fill="none"></path></g></g></g></g><g opacity="0.2"><g><g><g><path stroke="rgb(255, 112, 67)" stroke-width="2px" d="M35.54607734375,-11.263687515258756L35.78291640625,1.602303600311307L35.918665625,-10.724961185455289L36.0977390625,-7.644382858276346L36.195940625,5.871602153778103L36.637847656249996,10.65568552017214L36.796703125,15.522002792358427L37.45234296875,15.626659011840848L37.657410937499996,14.815854644775412L38.2119609375,5.380477523803738L38.2581734375,-2.431180858612053L38.42858203125,13.07602939605715L39.3326140625,21.14342031478884L39.338390624999995,32.5412422180176L39.4828046875,40.13495121002198L39.68787265625,39.339789009094254L39.898717187500004,46.20143899917604L39.91893515625,25.732820606231698L40.22798125,25.97445831298829L40.308853125,24.570067501068138L40.539915625000006,33.96254119873049L41.002040625,53.74082241058351L41.35152265625,35.32324085235598L41.591249999999995,45.92170867919924L41.856971875,47.97057924270631L41.90607265625,47.17744264602663L42.365309375,42.67936334609986L42.388415625,40.44880733489992L42.711903125000006,57.092409706115745L43.240458593750006,57.84362754821778L43.6303765625,71.17404470443726L43.711248437500004,49.22468147277833L44.32067578125,48.27039680480959L44.36111171875,49.28981027603151L44.90988515625,67.53735361099243L45.28536171875,63.66746482849123L45.41244609375,75.49994764328004L45.65795,81.3781105041504L45.81969375,59.21709976196291L45.839911718749995,95.376611328125L45.94388984375,84.25854787826538L46.1836171875,76.90664539337159L46.79015625,73.18684825897216L46.84503359375,76.93376598358155L47.04721328125,68.31667671203614L47.8703734375,96.5024112224579L47.95413359375,87.6170419216156L48.23140859375,89.86003289222718L48.26606796875,82.48530015945434L48.6790921875,109.61805806159973L49.0025796875,116.22449598312379L49.4300453125,78.85915908813477L49.548464843750004,94.67102584838867L50.2041046875,88.97242436408999L50.429390625,88.20546588897706L50.43805546875,82.57794342041016L50.481379687499995,83.60239276885987L50.576692968749995,111.52596626281738L51.376746875,103.46316108703613L51.4056296875,112.0939513206482L51.50671953125,97.37346324920655L51.963067968749996,105.30226907730103L52.179689062499996,97.44534406661987L52.508953125,79.54440412521363L52.62737265625,112.12526378631593L53.03750859375,114.56440076828002L53.07794453125,97.1615484714508L53.4274265625,81.63454637527465L53.456309375,79.9577961921692L53.72491953125,102.16694316864013L54.5249734375,108.64794836044311L54.6693875,114.96327600479125L54.689605468749996,102.86164102554321L54.85712578125,98.10706958770753L55.628296875,120.22810277938844L56.229059375,103.02022895812988L56.4774515625,92.76794252395632L56.514999218750006,108.99948916435241L56.841375,78.61029109954835L56.8933640625,116.14015207290649L57.31216484375,129.51001224517822L57.49701484375,120.64245138168334L58.562790625,93.85504493713378L58.58300859375,85.97398147583007L58.91804921875,127.3178864479065L59.14911171875,110.09628353118897L59.2733078125,110.23582515716552L59.51881171875,96.89307150840759L59.95205390625,121.37417278289796L59.954942187499995,115.39669904708863L60.01848437500001,104.7263644695282L60.2206640625,88.32037672996522L60.37085468750001,121.00642714500427L60.379519531250004,125.38337812423705L60.489274218750005,116.9726191520691L60.555704687500004,110.99205074310302L60.5788109375,104.83282122611999L60.711671875,117.02158532142639L60.948510937500004,136.90659055709838L61.003388281250004,119.65018663406372L61.86409609375,127.40732250213622L62.017175,123.55010781288146L62.074940624999996,117.12335786819459L62.16447734375,127.7885018348694L62.190471875,132.53561792373657L62.288673437499995,115.6018196105957L62.63237890625,113.40015659332275L62.84611171875,109.20909700393676L63.45265078125,105.29928693771362L63.4670921875,103.40032515525817L63.9407703125,117.55883464813232L64.015865625,105.47534570693969L64.3797890625,110.29428634643556L65.48022421875,132.6513024330139L66.07521015625,121.34944353103639L66.25428359375,138.59986910820007L66.5286703125,106.77623376846314L66.60665390625,103.94248375892639L66.6673078125,118.97982416152955L66.7019671875,121.05789718627929L66.74529140624999,127.073308801651L67.5915578125,98.50178108215331L68.0074703125,129.31018075942993L68.15477265625,125.26203880310058L68.221203125,120.4512568473816L68.7699765625,138.19456539154052L68.983709375,126.64125022888184L69.5498125,112.71426448822021L69.95706015625001,128.7197874546051L70.1679046875,117.75225172042846L70.243,111.32960925102233L70.29498906250001,134.66213665008544L70.46539765625,123.45595941543579L70.60981171875,128.19528255462646L71.14414375,111.50151834487914L71.16147343749999,122.69441661834716L71.24812187500001,113.85368094444274L71.30299921875,147.72881731987L71.56872109375,115.98274574279785L71.65536953125,128.66925988197326L71.84021953125,116.52830848693847L71.89509687500001,130.79250106811523L72.46697656250001,116.13842186927795L72.726921875,121.46393237113953L73.142834375,115.48295602798463L73.57318828125,91.80016789436343L73.57896484374999,144.69894943237304L73.67138984375,126.68927392959596L74.34435937500001,123.06091032028199L74.41367812499999,131.93255052566528L75.36969921875,100.49200758934022L75.430353125,138.5808087348938L75.81449453125,145.4187141418457L76.02245078125,122.26130304336549L76.26795468750001,126.89121541976928L77.10844453125,130.45633516311645L77.43193203125,142.03460464477538L77.57056953124999,112.37344250679017L77.69187734375001,132.7580123901367L78.1742203125,137.78317079544067L78.26375703125,129.01008186340331L78.67389296875001,142.47195229530334L78.826971875,92.87117800712586L78.89917890625,126.65244731903076L78.96272109375,108.45247755050659L79.55193046875,141.5987621307373L79.59236640625,125.76220831871032L79.6761265625,144.09830150604247L79.6992328125,147.69695625305175L79.78299296875,111.84882507324218L80.73612578125,140.53489789962768L80.9238640625,124.77068910598756L81.05961328125001,124.75923881530761L82.17448984375,135.5244110584259L82.5817375,133.62401447296142L83.6388484375,125.26265773773194L84.095196875,117.78985199928283L84.24827578125,139.03806076049804L84.54288046875001,130.991699552536L85.29383359375001,142.19302377700805L85.60865625,136.5489026069641L85.6490921875,132.07085428237914L85.87148984375001,133.6795497894287L86.2036421875,136.6786256790161L86.46936406249999,124.1826027393341L86.63399609375,122.49773607254028L86.74952734375,138.32018098831176L86.80151640625,145.26737055778503L86.8275109375,130.4271186351776L87.0470203125,135.9506178855896L87.353178125,146.65728673934936L87.376284375,126.44666562080384L87.58135234375,130.56739172935485L87.91928125,142.63474617004394L88.04925390625,125.42967162132263L88.20522109375,127.39422640800477L88.208109375,149.9593029975891L88.2716515625,140.43882236480712L88.31786406249999,133.1433554649353L88.89840859375,133.97877655029296L88.90707343749999,123.7613473892212L89.04859921875,121.9421015739441L89.11791796874999,129.3648720741272L89.76778125000001,143.83305988311767L89.95263125,122.39338932037354L90.14036953124999,134.54617080688476L90.2068,140.60306510925292L90.45808046875001,142.28060302734374L90.47252187500001,132.03186140060424L90.66603671875001,131.3145161628723L91.04728984375001,129.21188268661498L91.50363828124999,155.59239587783813L91.90799765625,138.3635908126831L91.98598125,132.17216262817382L92.4423296875,145.15358505249023L93.13262890625,142.2727819442749L93.268378125,128.43296751976013L93.3781328125,135.73798570632934L93.4590046875,122.9262357711792L93.78826875,117.67758569717407L94.63453515625,112.76546726226806L94.85115625,165.84712991714477L95.1111015625,133.38378343582153L95.7118640625,130.69262752532958L95.740746875,155.147789812088L95.83894843750001,147.08874044418334L95.86783125,132.01893410682678L95.94292656249999,144.2112289428711L96.07289921875,123.84047255516053L96.1393296875,139.27488765716552L96.35595078125,147.03022298812866L96.54657734375,136.49771389961242L96.872953125,125.44445571899415L97.24842968749999,136.90647802352905L97.28020078125,148.34182987213134L97.33796640624999,154.49510917663574L98.0224890625,134.7029863357544L98.42973671875,131.25743350982665L98.5423796875,147.1716495513916L98.62613984375,138.38035831451415L99.01605781250001,143.37558279037475L99.021834375,129.67248258590698L99.13158906250001,118.99310312271118L99.19801953125,139.12729988098144L99.81033515624999,149.22623119354247L99.99518515625,138.11307702064514L100.27823671875,148.66540608406066L100.30134296875,149.38012084960937L100.80390390625,149.1528311729431L100.8992171875,114.95680532455445L101.11295,127.48249492645263L101.22559296875001,140.4002655506134L101.47398515625,153.7402621269226L101.75703671875,149.72128043174743L101.82057890625,141.76190767288207L102.048753125,132.9243088722229L102.21916171875,145.9157467842102L103.0712046875,109.29947552680969L103.43512812499999,123.98656926155091L103.53621796875001,126.86046562194824L103.74995078124999,131.1178918838501L104.16875156249999,129.78797016143798L104.24095859375001,129.8250781059265L104.42580859374999,136.05580863952636L104.46624453125,144.21466121673583L104.85327421875,143.9576626777649L105.14210234375001,152.58367023468017L105.3356171875,147.6301113128662L106.28008515625001,154.95689067840576L106.28297343749999,137.6554311275482L106.37251015625,133.16358337402343L107.2765421875,144.6508131980896L107.293871875,149.62361536026L107.31120156249999,147.8143428325653L107.32275468750001,146.54077229499816L107.32564296874999,146.29006156921386L107.6577953125,154.32148394584655L108.32498828125,117.38128480911256L108.60803984374999,146.0196434020996L108.63692265625001,133.37615928649902L108.657140625,131.58089718818664L108.7091296875,127.46651515960694L109.24923828124999,123.60199985504151L109.512071875,137.06928596496581L109.6102734375,141.44976768493652L109.66226250000001,160.57021985054016L110.47964609375,127.55533227920532L110.68182578125,140.98562297821044L111.0197546875,160.69098243713378L111.05730234375001,148.90400538444518L111.32302421874999,123.03238306045533L111.406784375,111.5742431640625L111.51942734375,119.87891111373901L112.55632031249999,135.55925426483154L112.63141562499999,153.60136756896972L112.74983515625,149.65692529678344L112.8220421875,134.08773717880248L113.22351328125,165.37668333053588L113.40258671874999,119.41756567955018L114.00334921875,124.98123941421508L114.04956171875,151.60249004364013L114.26329453125001,136.7742651462555L114.40770859375,147.6733664035797L114.80051484375,136.46108422279357L115.03735390624999,139.04123983383178L115.53125,142.5724588394165L115.54569140625,139.2317310333252L115.62078671875,136.01154074668884L115.796971875,146.8563726902008L116.0338109375,148.37746081352233L116.23310234375,123.72165117263793L116.35152187499999,131.00786218643188L116.47571796875,137.048664188385L116.85697109375,124.00326642990112L116.8887421875,148.24699220657348L117.29887812499999,153.42657480239868L117.57037656249999,124.98550162315368L117.61081250000001,143.23550662994384L117.66280156250001,140.50012502670288L118.72280078125,159.46864280700683L119.5921734375,143.833003616333L119.69903984375,129.89459571838378L120.42977499999999,148.30061445236205L120.7532625,143.59693632125854L120.94100078125,138.77042779922485L120.96121875,148.96262130737304L120.984325,154.25908408164977L121.1229625,136.2144528388977L121.14895703124999,144.71370539665222L121.319365625,132.70970735549926L121.35691328125,134.96853742599487L121.8103734375,137.54897437095642L121.90568671875,119.11210737228393L122.56421484375001,145.90145502090454L122.8732609375,145.74300775527954L123.20541328125,155.39433679580688L123.3469390625,132.2041784286499L123.5086828125,129.22898778915405L123.8899359375,138.82570991516113L123.9130421875,144.892183637619L124.2942953125,136.68869743347167L124.6351125,143.16846475601196L124.71309609375,134.51916275024413L124.71887265625001,137.44271454811096L124.97881796875,130.99117908477783L125.18099765625,147.52064428329467L125.27919921875001,156.55423436164855L125.36007109375001,156.5336266517639L126.01859921875,143.60340700149536L126.2987625,126.38734636306762L126.32475703124999,141.31177339553832L126.35941640624999,139.5153859615326L126.41429375,137.69785628318786L126.46339453125,149.01566681861877L126.61936171875,141.13866863250732L126.65402109375,138.79279384613037L126.72622812499999,134.93586049079894L126.83309453125001,130.40313491821288L127.13347578125,160.7518771648407L127.18835312499999,144.1438916683197L127.49162265625,144.3731647491455L128.12993281250002,155.98586950302123L128.19058671875,158.46836004257202L128.3494421875,163.24425659179687L128.60072265624999,132.68554077148437L128.6036109375,113.44246921539306L128.81445546875,142.92034230232238L129.34589921875,141.722900724411L130.30480859375,113.52442178726196L130.48388203125,144.38990411758422L130.7062796875,145.85094151496887L130.93445390625,134.6276732444763L130.9951078125,149.38898286819457L131.0182140625,142.41475710868835L131.06153828125,145.67135200500488L131.36769609375,154.93120489120483L131.62764140625,150.71866545677184L132.19952109375,154.14286503791809L132.2197390625,122.75138673782348L132.410365625,145.31591472625732L132.42480703125,140.30918369293212L132.72518828124998,151.2544940471649L132.7742890625,144.15921030044555L132.96780390625,150.7381196975708L133.5714546875,156.36983404159545L133.6176671875,146.00037202835082L133.65521484375,135.84335932731628L133.8314,154.621484375L134.50436953125,132.50590906143188L134.67766640624998,162.50313863754272L134.76431484375001,143.4325810432434L134.8191921875,145.77205548286437L135.07624921874998,150.9211133480072L135.22643984375,142.3104525566101L135.3159765625,143.85240159034728L135.48060859375,146.68689713478088L135.90229765625,144.94715628623962L136.23733828125,117.94163165092468L136.3326515625,137.31725368499755L137.06338671875,169.80584988594055L137.16158828125,138.49978456497192L137.955865625,157.45845565795898L138.279353125,148.49612746238708L139.19205,153.15844950675964L139.35090546875,161.2429877281189L139.3942296875,141.40568265914916L139.90545546875,145.2816201210022L139.95166796875,145.63974413871765L139.9834390625,153.8180790901184L140.312703125,164.65954909324645L140.48888828125,156.77039728164672L140.4917765625,127.22664985656739L140.659296875,143.9970775604248L140.7170625,141.4550567626953L141.06365625,149.94855604171752L141.47090390625002,130.69039092063903L141.54022265625,144.55807147026061L141.93302890625,138.81721363067626L142.21030390625,147.9075065612793L142.38071250000002,149.8182421684265L142.41248359375,145.15392265319824L143.23275546875,136.96187267303466L143.55335468750002,167.5836916923523L143.6342265625,122.06474909782409L143.78152890625,151.90464267730712L144.0616921875,146.0685673713684L144.15122890625,164.80035672187805L144.1656703125,140.6049922466278L144.471828125,159.7559691429138L145.26899375,167.86595401763915L145.82354375,156.22137413024902L145.858203125,155.95624504089355L146.28278046875,147.22490606307983L146.32899296875001,141.5485158920288L146.34054609375,154.21177778244018L146.435859375,160.24323949813842L146.4762953125,140.5564480781555L146.493625,153.0961199760437L146.70446953125,148.3860836982727L147.41787499999998,145.9058156967163L147.67204375,171.52184615135192L148.007084375,156.70023260116577L148.08506796875,153.70571432113647L148.28724765625,158.9988995552063L148.48365078125002,148.15409574508666L148.72048984375,158.71324715614318L148.85912734375,132.02439198493957L148.90533984375,149.9639872074127L149.81803671875,160.97103629112243L150.22817265625,158.51779041290283L150.5776546875,172.7520209312439L150.7162921875,148.68938980102538L150.895365625,124.18635854721069L151.16975234375002,157.70209083557128L151.4903515625,155.3143816947937L151.542340625,157.6771083831787L152.1488796875,142.07830986976623L152.43193125,154.80681309700012L152.974928125,148.86865577697753L153.02402890625,157.62781867980956L153.136671875,141.888339138031L153.8818484375,157.07851419448852L154.4479515625,154.3711112499237L154.5750359375,141.47348413467407L154.67612578125,140.32192811965942L154.83209296875,161.18932328224182L154.92451796875,158.30878744125366L155.13247421875,157.4681194782257L155.21045781249998,162.31318197250366L155.22201093750002,143.9938422203064L155.40397265625,143.4659472465515L155.89786875000001,162.45574793815612L155.909421875,156.19003353118896L155.94696953125,153.39731607437133L156.17803203125,151.6873966217041L156.18958515625,130.28927907943725L156.29356328125,160.2563777923584L156.54484375,162.2868631839752L156.56506171875,138.1479483604431L156.69214609375,153.86745319366455L156.845225,146.19302949905395L157.65683203125,157.29660425186157L157.83012890625,143.61968216896057L158.07274453125,156.21863112449645L158.2835890625,148.0373140335083L158.324025,163.59161958694457L158.751490625,163.1185284614563L159.15585,138.21069989204406L159.7508359375,149.2143729686737L159.77683046874998,150.25788269042968L159.929909375,146.44634256362914L160.31982734374998,156.16668281555175L160.42380546875,149.84890756607055L160.7559578125,146.54500637054443L161.27873671875003,148.7221933364868L161.3798265625,159.2437726020813L161.83906328125,164.59281668663024L162.00369531249999,147.7326012611389L162.23186953125,143.04003582000732L162.33584765625002,137.32905564308166L162.66222343750002,151.73246631622314L162.70843593749998,153.07656726837158L162.93661015625,164.1499267578125L163.18500234375,162.78365669250488L163.75399375,145.3937457561493L165.2039109375,147.39817962646484L165.32810703125,150.80257329940795L165.50140390625,133.46328840255737L165.55916953125,154.84413204193115L165.63426484375,150.75020298957824L165.89421015625,152.48475322723388L166.04440078125,174.74167070388793L166.21769765624998,153.21006021499633L166.32167578124998,166.70111904144287L166.4747546875,148.17972526550292L166.4863078125,166.79125843048095L166.52385546875,165.15479526519775L166.56429140625002,159.97861680984497L166.63361015625003,147.32838068008422L166.66826953125,152.85650787353515L166.7809125,144.0965009689331L166.8213484375,144.99273238182067L167.1794953125,151.62512335777282L167.196825,161.78196725845336L167.31524453125,148.69079647064208L167.36723359375,166.97402701377868L167.4336640625,166.32830939292907L167.73982187500002,153.04103479385375L168.04309140625003,158.63443145751953L168.17595234375,161.18880281448364L169.00488906249998,172.60879383087158L169.0279953125,149.42440280914306L169.39769531250002,145.79955587387084L169.958021875,164.73110637664794L170.3566046875,158.89348373413085L171.19420625,146.48162183761596L171.3501734375,152.45884237289428L171.42238046875,167.66112885475158L171.78630390625,160.48780307769775L172.0202546875,142.28839597702026L172.19643984375,142.82678470611572L172.2513171875,159.9285675048828L173.31420468750002,161.57535562515258L173.45861875,151.67338619232177L173.72722890625,160.77479181289672L173.77344140625002,159.92787823677062L173.86008984375,168.67200384140014L174.070934375,159.78655014038085L174.4001984375,147.92082772254943L174.65436718750001,165.0378306865692L175.11360390625,146.642094707489L175.11938046875,166.71496067047119L175.66237734375,152.57610235214233L176.12450234375,149.5191279411316L176.22848046874998,154.29038248062133L176.5721859375,142.29089984893798L176.84079609375,159.9282299041748L176.99965156250002,158.89894161224365L177.1729484375,137.6089828968048L178.35136718750002,160.8319869995117L178.47845156250003,147.77979502677917L178.4900046875,156.0417142868042L178.51311093750002,149.17404375076293L178.94057656249998,128.51665029525756L179.07632578124998,143.27531538009643L179.26695234375,160.32921514511108L179.27272890625,162.97527322769164L179.75796015625,151.73283205032348L179.916815625,128.32120761871337L180.09300078125,153.2750202178955L180.19120234375,148.64507970809936L180.5464609375,163.26881704330444L180.59844999999999,142.70229444503784L181.0432453125,141.55497250556945L181.38983906250002,161.33097491264343L181.69022031249997,139.59569272994995L181.78553359375,166.76093063354492L181.97038359375,151.0450409412384L181.99926640625,165.27447471618652L182.227440625,142.6896062850952L182.27076484375002,159.73439083099365L182.37763125,170.65675840377807L183.11991953125,163.74241456985473L183.14302578125,159.33121118545532L183.313434375,158.34752712249755L183.35387031250002,141.4239552974701L184.0008453125,145.60146865844726L184.02106328124998,150.40043458938598L184.03261640625,135.9651065826416L184.04416953125002,158.5322509765625L184.4514171875,154.43791399002075L184.54673046875,148.55453238487243L184.57850156249998,150.76034507751464L185.05795625,134.34110651016235L185.10128046875002,138.3265954017639L185.161934375,169.31614599227905L185.20525859375,151.92343578338622L185.54607578125,154.4458194732666L185.9128875,159.68234405517578L186.1959390625,148.8566568851471L186.65517578125,153.3166576385498L186.71871796874998,158.24530444145202L186.84580234375,158.3396216392517L186.92667421875,158.21335897445678L187.18084296875,163.40889320373535L187.55631953125,165.9271975517273L187.6862921875,159.18995342254638L188.29571953125,161.59924087524413L188.60187734374998,165.66430506706237L188.61054218750002,145.54523000717163L188.68563749999998,141.0476008415222L188.77517421875,158.4527319431305L189.29217656249998,156.14150342941284L189.30661796874998,160.3929232120514L189.32972421875002,168.22334656715392L189.79762578125,165.95814428329467L189.9507046875,145.57513580322265L190.03446484375002,146.51546630859374L190.5283609375,148.4739161491394L190.88939609375,165.60279140472412L191.50459999999998,141.26934823989868L191.59991328125,150.36304531097412L191.72122109375,149.0604833126068L191.8743,156.3462019920349L192.09092109375,152.01578364372253L192.13135703125,157.3343873977661L192.151575,157.28315649032592L192.38263750000002,155.96673879623413L192.89963984374998,155.04396352767944L192.994953125,167.62990078926086L193.09893125000002,161.54409942626953L193.51195546875,168.06899271011352L193.61882187499998,160.03060731887817L194.26868515625,143.54832181930541L194.37843984375,155.65715894699096L194.39576953125,163.8640070915222L194.86944765625,153.08078727722167L194.912771875,146.35185656547546L195.0109734375,153.1556924343109L195.7099375,151.30801782608032L197.25516796875,148.03354415893554L197.4024703125,157.65589580535888L197.67396875,152.45304689407348L198.00900937499998,159.33250532150268L198.16786484375,160.62842783927917L198.25451328124998,159.41684923171997L198.26606640625,157.46478567123413L198.47979921875,159.86418423652648L198.5577828125,161.51762590408325L198.60688359374998,161.0846248626709L198.67909062500001,162.31880865097045L198.92170625,175.645019865036L199.3318421875,155.36199746131896L199.3780546875,151.65131554603576L199.395384375,148.18200407028198L200.0539125,158.164857006073L200.18966171875,139.6393557548523L200.53914375000002,172.08901534080505L201.09369375,158.45007333755493L201.13990625,156.6755877494812L201.2265546875,159.54615030288696L201.42006953125002,162.09955105781555L201.46050546875,166.50764570236205L201.85908828125,150.1465588569641L202.20279375,137.48992238044738L202.4280796875,166.79207429885864L202.69668984375,153.7548352241516L202.71401953125,146.93715772628784L202.77756171874998,161.69666681289672L203.03750703125,154.76137766838073L203.32922343750002,154.02964220046997L203.55162109375,146.50487408638L203.63249296875,161.58064470291137L203.90110312500002,148.75644574165344L204.11772421875,156.02908239364623L204.69538046875,155.69091901779174L205.42033906249998,166.9815245628357L205.66006640625,144.63421449661254L205.865134375,145.90374789237976L206.14529765625,156.2761920452118L206.17995703124998,164.46824202537536L206.26082890625003,155.7667947769165L206.3330359375,165.34845147132873L206.6103109375,159.47387561798095L207.032,152.4814616203308L208.35772109375,144.89240870475768L208.43281640625,149.92628846168517L208.58878359375,161.2144323348999L209.446603125,144.4124108314514L209.53613984375,153.11440668106079L209.55924609375,153.55584774017333L210.4806078125,160.07014880180358L210.91385,170.5249815940857L211.47995312499998,149.20673475265502L211.8785359375,170.33821806907653L212.080715625,169.20862016677856L212.08360390625,154.50647506713867L212.32621953125,141.715993976593L212.6179359375,151.62567195892333L212.78256796875,173.5104971885681L213.10027890625,153.40050921440124L213.25046953125002,165.6276894569397L213.34289453125,154.4071219921112L213.698153125,169.57443866729736L213.96676328125,151.72984991073608L214.0158640625,141.00766549110412L214.10540078125,166.21103534698486L214.23248515625,159.8494282722473L214.38267578125,165.83728322982788L215.20872421875,156.1561327934265L215.23760703125,162.0763832092285L215.24338359375,162.49685082435607L215.71706171875002,156.17299876213073L216.30049453125,163.5105110168457L216.58932265624998,164.02234182357788L216.62109375,158.31724152565002L216.77706093749998,154.35978755950927L217.32872265625,163.06634101867675L217.4124828125,155.04289445877075L217.46447187500002,161.41851196289062L217.63199218749997,156.4153257369995L217.70419921875,162.64716753959655L217.92082031249998,155.39425239562988L218.01035703124998,167.4737745285034L218.14321796875,161.20692071914672L218.35695078125,161.9725709915161L218.47825859375,166.08269081115722L218.66888515625,157.95529136657714L218.92016562499998,163.83253989219665L219.24076484375001,171.3007598876953L219.359184375,144.76835451126098L219.62490624999998,167.5634075164795L219.65090078125,179.11563954353332L220.3700828125,164.77469906806945L221.0517171875,154.62512764930725L221.37809296875,148.09009227752685L221.78245234375,163.50510940551757L222.24746562500002,155.4847997188568L222.3283375,145.34116444587707L222.45831015624998,159.4287215232849L223.6685,150.35629329681396L223.7667015625,158.70904121398925L223.87934453124998,160.08628330230712L224.45122421874999,170.03104362487792L225.50255859375002,159.5384136199951L226.04555546875002,154.97112617492675L226.04844375,165.7884717941284L226.09754453125,140.7443510055542L226.267953125,169.2458125114441L226.3777078125,129.69887170791625L226.52501015625,169.15551838874816L226.76473750000002,164.66645584106445L226.9900234375,155.07800493240356L227.28173984375,155.3673568725586L227.63699843749998,156.36970744132995L227.96915078125002,158.72094163894653L228.139559375,157.73227796554565L228.66811484375,162.76669225692748L228.671003125,155.68430767059326L228.70855078125,156.38629207611083L229.1157984375,159.47587308883666L229.2602125,163.72723660469055L229.48838671875,145.94095430374145L229.549040625,169.12717399597167L229.96784140625,170.5329011440277L230.0862609375,155.5269013404846L230.16424453125,163.95220527648925L230.25089296874998,149.0453616142273L230.4790671875,159.47810969352722L230.81699609375002,153.9074870109558L232.3853328125,154.7560604572296L232.3968859375,157.36868200302123L232.4662046875,158.93619022369384L232.48642265625,164.2960515975952L232.59040078125,168.95429430007934L232.737703125,163.5643723964691L232.95721250000003,156.580215549469L233.70527734375,149.04102907180786L233.939228125,151.40478262901306L234.73639375,157.52392206192016L234.85770156249998,170.95647749900817L235.186965625,159.43875107765197L235.5508890625,170.92998991012573L235.625984375,157.04282698631286L235.961025,155.16178617477416L236.17186953125,144.27362880706787L236.4058203125,150.81223711967468L236.5675640625,161.12036833763122L236.6253296875,166.20815167427062L236.71486640625,150.00704536437988L236.77840859375002,160.70839700698852L236.873721875,170.02126727104186L236.94592890625,144.5641342163086L236.95459375000002,163.54463682174682L237.40805390625,159.61782011985778L237.63333984375,166.43686208724975L237.69399375,174.5095139503479L237.69688203125,165.12474880218505L237.70265859375,162.05232915878295L237.99726328125,162.23212966918945L238.005928125,171.44820699691772L238.12145937499997,172.81754360198974L238.4507234375,169.34290084838867L238.92728984375,151.3031226158142L239.36053203125,179.19076976776122L239.577153125,175.26455793380737L239.75333828125,128.10356769561767L240.24434609375,182.63733539581298L240.6458171875,146.15133581161498L241.887778125,173.41572985649108L241.97731484375,153.12162289619445L242.00619765625,147.5973359107971L242.0206390625,155.57866678237914L242.15638828125,156.25175819396972L242.30657890625,163.78967866897582L242.32968515625,169.21389517784118L242.396115625,161.96714124679565L242.64739609375002,172.47175607681274L243.15573359375,155.79796657562255L243.17595156250002,172.02778301239013L243.782490625,150.99043402671813L245.11398828125002,158.49873003959655L245.21796640625,158.1156798362732L245.50390625,142.71734580993652L245.908265625,158.76575813293456L245.99780234374998,172.31167707443237L246.78341484375,175.65305194854736L246.85851015625,155.7379017829895L246.91049921875,170.88565168380737L247.14156171875,163.7917324066162L247.32063515625,166.07154998779296L247.51703828125,166.4434453010559L248.18423125,174.85511860847473L248.1900078125,162.37327489852905L248.29976249999999,174.25631341934204L248.55393125,158.82094178199767L248.61169687499998,150.33724699020385L248.67812734375002,152.30122504234313L249.02183281249998,162.9766095638275L249.63703671875,160.50699005126953L249.7843390625,161.26034603118896L250.2002515625,168.32694778442382L250.33600078125,158.81808624267578L250.42842578124998,153.5386863708496L250.6739296875,170.11350259780883L251.00897031250003,166.49771461486816L251.02918828125,167.2771502494812L251.060959375,165.1672583580017L251.49131328125,169.9740735054016L251.85234843749998,173.17431721687316L252.21627187500002,155.5179549217224L252.4415578125,143.68094263076782L252.60907812500002,161.0071033000946L252.8112578125,164.52578887939453L253.13763359375002,151.52658615112304L253.59687031250002,167.53735599517822L253.72106640624997,169.69883046150207L253.88281015624997,170.04511032104492L254.43736015625,151.90973482131957L254.55866796875,155.35075817108154L254.7695125,179.53385648727416L254.93414453125,161.91880807876586L256.40716796875,162.0126329421997L256.60357109375,158.4272008895874L256.82596875,166.1422773361206L256.8664046875,160.2489646434784L256.92128203125003,172.91103086471557L256.97904765625003,156.71874437332153L257.07147265625,154.297683095932L257.392071875,160.6698401927948L257.94951015625,165.9820436000824L258.1488015625,178.25277433395385L258.2643328125,157.7167483329773L258.78133515625,153.1495171546936L258.847765625,166.31612763404846L259.067275,164.23190746307372L259.402315625,156.90338382720947L259.47452265625,174.38887796401977L259.8528875,181.01993260383605L259.87310546875,156.8428126335144L259.9395359375,163.02575860023498L260.03484921875,170.72394094467163L260.04640234375,154.5270405769348L260.234140625,176.235680437088L260.42187890624996,163.79055080413818L260.95909921875,167.66339359283447L261.07174218750004,167.36551723480224L261.1179546875,151.75145635604858L261.5338671875,146.11552200317382L261.6089625,158.31846532821655L261.71582890625,169.60658106803893L261.81980703125,166.12882957458496L262.17217734375,156.8137086391449L262.3310328125,166.74068865776061L262.44367578124996,162.37914071083068L262.44945234375,162.8339310646057L262.6776265625,167.3761516571045L262.822040625,146.79805216789245L262.87691796875,177.0379744529724L263.17152265625003,140.16051278114318L263.93402890625,158.00220379829406L264.2604046875,152.00097141265869L264.36149453125,162.6477864742279L264.61566328125,162.5436366558075L265.08356484375,161.21232233047485L265.5832375,171.1401463508606L265.95293749999996,154.77133688926696L266.4439453125,180.25063905715942L266.90029375,148.32900104522705L266.96672421875,148.73499402999877L267.12846796875,165.98720607757568L267.24111093749997,167.1723955631256L267.59348124999997,172.37724194526672L267.71190078125,160.56263790130615L267.84765,162.12598237991332L267.94585156249997,153.06323204040527L268.12203671875,168.22082862854003L268.17402578125,161.924969291687L268.21446171875,174.19239435195922L268.39064687499996,164.1491952896118L268.82677734375,139.96339616775512L268.97696796875,170.8230830192566L269.38132734375,155.32135877609252L269.75969218750004,163.00117001533508L270.08317968750004,152.39042196273803L270.8110265625,164.31456336975097L271.27603984375,160.6071449279785L271.3424703125,169.18220291137695L271.41467734375,148.63582382202148L271.97500390625,176.83400735855102L272.018328125,168.87736353874206L272.06742890625,160.383118724823L272.09053515625004,166.2298565864563L272.2089546875,166.87031326293945L272.23494921875,152.67501935958862L272.6364203125,158.81493530273437L272.67974453125,183.6480556488037L272.76061640625,156.35486707687377L272.87037109375,179.7182427406311L273.23429453125,157.81214866638183L273.4797984375,162.44013390541076L273.63576562500003,159.25210008621215L273.8610515625,155.76077423095703L274.2711875,158.21380910873413L274.444484375,166.28063735961913L274.49069687499997,162.9795495033264L274.536909375,168.33443126678466L274.64377578125,164.1255491733551L274.81129609375,169.0586410522461L274.87483828125,165.61898217201232L275.08857109375,160.8534246444702L275.17521953125,163.9848259449005L275.31096875000003,164.7008629798889L275.853965625,151.56673250198364L275.94350234374997,162.1094118118286L276.038815625,167.78964219093322L276.223665625,167.2460347175598L276.33630859375,177.4051152229309L276.3680796875,166.38717851638793L276.55004140625,133.3179090976715L277.1074796875,165.57890615463256" style="fill: none;" fill="none"></path></g></g></g></g></g></g><g transform="translate(41, 177)" clip-path="url(#clip_1)"><clipPath id="clip_1"><rect width="288" height="22"></rect></clipPath><g><g><line x1="0" y1="0" x2="0" y2="5" style="visibility: inherit;" fill="rgb(0, 0, 0)" stroke="rgb(204, 204, 204)" stroke-width="1px"></line><line x1="28.8828125" y1="0" x2="28.8828125" y2="5" style="visibility: inherit;" fill="rgb(0, 0, 0)" stroke="rgb(204, 204, 204)" stroke-width="1px"></line><line x1="57.765625" y1="0" x2="57.765625" y2="5" style="visibility: inherit;" fill="rgb(0, 0, 0)" stroke="rgb(204, 204, 204)" stroke-width="1px"></line><line x1="86.6484375" y1="0" x2="86.6484375" y2="5" style="visibility: inherit;" fill="rgb(0, 0, 0)" stroke="rgb(204, 204, 204)" stroke-width="1px"></line><line x1="115.53125" y1="0" x2="115.53125" y2="5" style="visibility: inherit;" fill="rgb(0, 0, 0)" stroke="rgb(204, 204, 204)" stroke-width="1px"></line><line x1="144.4140625" y1="0" x2="144.4140625" y2="5" style="visibility: inherit;" fill="rgb(0, 0, 0)" stroke="rgb(204, 204, 204)" stroke-width="1px"></line><line x1="173.296875" y1="0" x2="173.296875" y2="5" style="visibility: inherit;" fill="rgb(0, 0, 0)" stroke="rgb(204, 204, 204)" stroke-width="1px"></line><line x1="202.1796875" y1="0" x2="202.1796875" y2="5" style="visibility: inherit;" fill="rgb(0, 0, 0)" stroke="rgb(204, 204, 204)" stroke-width="1px"></line><line x1="231.0625" y1="0" x2="231.0625" y2="5" style="visibility: inherit;" fill="rgb(0, 0, 0)" stroke="rgb(204, 204, 204)" stroke-width="1px"></line><line x1="259.9453125" y1="0" x2="259.9453125" y2="5" style="visibility: inherit;" fill="rgb(0, 0, 0)" stroke="rgb(204, 204, 204)" stroke-width="1px"></line><line x1="288.828125" y1="0" x2="288.828125" y2="5" style="visibility: inherit;" fill="rgb(0, 0, 0)" stroke="rgb(204, 204, 204)" stroke-width="1px"></line></g><g transform="translate(0, 8)"><text x="0" y="0" dx="0em" dy="0.95em" style="text-anchor: middle; visibility: hidden; font-family: Roboto, sans-serif; font-size: 15px; font-weight: 200;" fill="rgb(33, 33, 33)" stroke="none" stroke-width="1px">-10k</text><text x="28.8828125" y="0" dx="0em" dy="0.95em" style="text-anchor: middle; visibility: inherit; font-family: Roboto, sans-serif; font-size: 15px; font-weight: 200;" fill="rgb(33, 33, 33)" stroke="none" stroke-width="1px">0</text><text x="57.765625" y="0" dx="0em" dy="0.95em" style="text-anchor: middle; visibility: inherit; font-family: Roboto, sans-serif; font-size: 15px; font-weight: 200;" fill="rgb(33, 33, 33)" stroke="none" stroke-width="1px">10k</text><text x="86.6484375" y="0" dx="0em" dy="0.95em" style="text-anchor: middle; visibility: inherit; font-family: Roboto, sans-serif; font-size: 15px; font-weight: 200;" fill="rgb(33, 33, 33)" stroke="none" stroke-width="1px">20k</text><text x="115.53125" y="0" dx="0em" dy="0.95em" style="text-anchor: middle; visibility: inherit; font-family: Roboto, sans-serif; font-size: 15px; font-weight: 200;" fill="rgb(33, 33, 33)" stroke="none" stroke-width="1px">30k</text><text x="144.4140625" y="0" dx="0em" dy="0.95em" style="text-anchor: middle; visibility: inherit; font-family: Roboto, sans-serif; font-size: 15px; font-weight: 200;" fill="rgb(33, 33, 33)" stroke="none" stroke-width="1px">40k</text><text x="173.296875" y="0" dx="0em" dy="0.95em" style="text-anchor: middle; visibility: inherit; font-family: Roboto, sans-serif; font-size: 15px; font-weight: 200;" fill="rgb(33, 33, 33)" stroke="none" stroke-width="1px">50k</text><text x="202.1796875" y="0" dx="0em" dy="0.95em" style="text-anchor: middle; visibility: inherit; font-family: Roboto, sans-serif; font-size: 15px; font-weight: 200;" fill="rgb(33, 33, 33)" stroke="none" stroke-width="1px">60k</text><text x="231.0625" y="0" dx="0em" dy="0.95em" style="text-anchor: middle; visibility: inherit; font-family: Roboto, sans-serif; font-size: 15px; font-weight: 200;" fill="rgb(33, 33, 33)" stroke="none" stroke-width="1px">70k</text><text x="259.9453125" y="0" dx="0em" dy="0.95em" style="text-anchor: middle; visibility: inherit; font-family: Roboto, sans-serif; font-size: 15px; font-weight: 200;" fill="rgb(33, 33, 33)" stroke="none" stroke-width="1px">80k</text><text x="288.828125" y="0" dx="0em" dy="0.95em" style="text-anchor: middle; visibility: hidden; font-family: Roboto, sans-serif; font-size: 15px; font-weight: 200;" fill="rgb(33, 33, 33)" stroke="none" stroke-width="1px">90k</text></g><line x1="0" y1="0" x2="288.828125" y2="0" fill="rgb(0, 0, 0)" stroke="rgb(204, 204, 204)" stroke-width="1px"></line></g></g></g></g></svg>